<svg width="512" height="512" viewBox="0 0 512 512" fill="none" xmlns="http://www.w3.org/2000/svg">
<g clip-path="url(#clip0)">
<path d="M454.333 126.028V364.777L256 474.697L57.667 364.778V147.222L256 35V-0.999969L25.045 128V384L256 512L486.955 384V141L454.333 126.028Z" fill="#0073E6"/>
<path d="M454.333 126.028V364.777L256 474.697L57.667 364.778V147.222L256 35V-0.999969L25.045 128V384L256 512L486.955 384V141L454.333 126.028Z" stroke="#0073E6"/>
<line x1="390" y1="12.1511" x2="388" y2="343.151" stroke="#0073E6" stroke-width="50"/>
<path d="M256 388.673L134.271 321.211V188.795L256 121.333L317.246 155.275L377.729 188.795V321.211L256 388.673Z" stroke="#0073E6" stroke-width="50"/>
<path d="M256.242 105.063L256 104.928L255.758 105.063L120.178 180.203L119.921 180.345V180.64V329.36V329.655L120.178 329.797L255.758 404.937L256 405.072L256.242 404.937L391.822 329.797L392.079 329.654V329.359V180.64V180.345L391.822 180.203L256.242 105.063ZM98.6206 167.795L256 80.5717L413.379 167.795V342.205L256 429.428L98.6206 342.205V167.795Z" fill="#0073E6" stroke="#0073E6"/>
</g>
<defs>
<clipPath id="clip0">
<rect width="512" height="512" fill="white"/>
</clipPath>
</defs>
</svg>
