<svg width="222" height="183" viewBox="0 0 222 183" fill="none" xmlns="http://www.w3.org/2000/svg">
<path d="M122.02 179H99.5686C96.6087 179 94.1528 176.885 93.9665 174.166L93.4733 166.602C83.3217 164.638 73.5649 160.922 64.8603 155.695L58.9405 160.494C56.726 162.291 53.3713 162.205 51.2556 160.272L35.3814 145.689C33.2874 143.766 33.1778 140.674 35.14 138.63L40.3695 133.192C34.6798 125.2 30.6343 116.242 28.4857 106.912L20.262 106.459C17.3021 106.288 15 104.037 15 101.312V80.6875C15 77.9633 17.3021 75.7124 20.262 75.5412L28.4857 75.0882C30.6343 65.7574 34.6798 56.7996 40.3695 48.8085L35.14 43.3703C33.1778 41.3261 33.2874 38.2344 35.3814 36.3107L51.2556 21.7282C53.3605 19.7997 56.726 19.7142 58.9405 21.5065L64.8603 26.3052C73.5649 21.0785 83.3217 17.3622 93.4733 15.3984L93.9665 7.83381C94.1528 5.11475 96.6087 3 99.5686 3H122.02C124.98 3 127.436 5.11475 127.623 7.83381L128.116 15.3984C138.267 17.3622 148.024 21.0782 156.729 26.3052L162.649 21.5065C164.874 19.719 168.229 19.8046 170.333 21.7282L186.208 36.3107C188.302 38.2344 188.411 41.3261 186.449 43.3703L181.22 48.8085C186.909 56.7996 190.955 65.7577 193.103 75.0882L201.327 75.5412C204.287 75.7124 206.589 77.9633 206.589 80.6875V101.312C206.589 104.037 204.287 106.288 201.327 106.459L193.103 106.912C190.955 116.243 186.909 125.2 181.22 133.192L186.449 138.63C188.411 140.674 188.302 143.766 186.208 145.689L170.333 160.272C168.229 162.2 164.863 162.286 162.649 160.494L156.729 155.695C148.024 160.922 138.267 164.638 128.116 166.602L127.623 174.166C127.436 176.885 124.98 179 122.02 179V179Z" fill="#4B4B53"/>
<path d="M201.327 75.5412L193.103 75.0882C190.955 65.7574 186.909 56.7996 181.22 48.8085L186.449 43.3703C188.411 41.3261 188.302 38.2344 186.208 36.3107L170.333 21.7282C168.229 19.8046 164.874 19.719 162.649 21.5065L156.729 26.3052C148.024 21.0785 138.267 17.3622 128.116 15.3984L127.623 7.83381C127.436 5.11475 124.98 3 122.02 3H110.795V179H122.02C124.98 179 127.436 176.885 127.623 174.166L128.116 166.602C138.267 164.638 148.024 160.922 156.729 155.695L162.649 160.494C164.863 162.286 168.229 162.201 170.333 160.272L186.208 145.689C188.302 143.766 188.411 140.674 186.449 138.63L181.22 133.192C186.909 125.2 190.955 116.242 193.103 106.912L201.327 106.459C204.287 106.288 206.589 104.037 206.589 101.312V80.6875C206.589 77.9633 204.287 75.7124 201.327 75.5412V75.5412Z" fill="#2D2D32"/>
<path d="M93.9554 121.938C93.9554 119.088 91.4449 116.781 88.3424 116.781C85.2508 116.781 82.7295 114.47 82.7295 111.625V101.313C82.7295 97.3364 81.0426 93.7431 78.3499 91C81.0426 88.2569 82.7295 84.6637 82.7295 80.6875V70.375C82.7295 67.5301 85.2508 65.2188 88.3424 65.2188C91.4449 65.2188 93.9554 62.9125 93.9554 60.0625C93.9554 57.2125 91.4449 54.9062 88.3424 54.9062C79.0571 54.9062 71.5036 61.8452 71.5036 70.375V80.6875C71.5036 83.5324 68.9823 85.8438 65.8907 85.8438C62.7882 85.8438 60.2777 88.15 60.2777 91C60.2777 93.8501 62.7882 96.1563 65.8907 96.1563C68.9823 96.1563 71.5036 98.4676 71.5036 101.313V111.625C71.5036 120.155 79.0571 127.094 88.3424 127.094C91.4449 127.094 93.9554 124.788 93.9554 121.938Z" fill="#99FFFF"/>
<path d="M161.311 91C161.311 88.15 158.801 85.8438 155.698 85.8438C152.607 85.8438 150.085 83.5324 150.085 80.6875V70.375C150.085 61.8452 142.532 54.9062 133.246 54.9062C130.144 54.9062 127.633 57.2125 127.633 60.0625C127.633 62.9125 130.144 65.2188 133.246 65.2188C136.338 65.2188 138.859 67.5301 138.859 70.375V80.6875C138.859 84.6637 140.546 88.2569 143.239 91C140.546 93.7431 138.859 97.3364 138.859 101.313V111.625C138.859 114.47 136.338 116.781 133.246 116.781C130.144 116.781 127.633 119.088 127.633 121.938C127.633 124.788 130.144 127.094 133.246 127.094C142.532 127.094 150.085 120.155 150.085 111.625V101.313C150.085 98.4676 152.607 96.1563 155.698 96.1563C158.801 96.1563 161.311 93.8501 161.311 91Z" fill="#66E6FF"/>
<path d="M99.5687 96.1563C102.669 96.1563 105.182 93.8477 105.182 91C105.182 88.1523 102.669 85.8438 99.5687 85.8438C96.4687 85.8438 93.9557 88.1523 93.9557 91C93.9557 93.8477 96.4687 96.1563 99.5687 96.1563Z" fill="#99FFFF"/>
<path d="M122.02 96.1563C125.12 96.1563 127.633 93.8477 127.633 91C127.633 88.1523 125.12 85.8438 122.02 85.8438C118.92 85.8438 116.407 88.1523 116.407 91C116.407 93.8477 118.92 96.1563 122.02 96.1563Z" fill="#66E6FF"/>
</svg>
