<svg width="439" height="504" viewBox="0 0 439 504" fill="none" xmlns="http://www.w3.org/2000/svg">
<g clip-path="url(#clip0)">
<path opacity="0.18" d="M151.687 96.7724C144.128 117.118 142.531 140.215 132.092 158.891C116.256 187.231 84.6253 198.184 61.5132 219.341C38.5382 240.39 23.9448 273.584 26.2359 306.705C28.5269 339.826 49.0818 371.368 77.5505 380.823C87.4165 384.108 98.1215 384.929 107.003 390.748C126.808 403.722 129.801 435.616 147.532 451.911C163.392 466.482 186.706 464.677 206.325 457.965C225.944 451.252 244.797 440.353 265.279 438.973C277.493 438.151 289.779 440.777 301.944 439.36C317.449 437.556 331.695 429.31 345.329 420.847C369.038 406.122 394.538 386.435 398.482 356.427C403 321.853 376.443 290.501 376.863 255.557C377.056 239.317 383.155 223.681 383.72 207.414C384.526 184.975 373.781 162.482 356.695 150.699C342.715 141.045 325.677 138.555 311.068 130.155C291.263 118.769 277.638 97.6746 260.834 81.3622C230.429 51.85 169.305 49.3148 151.687 96.7724Z" fill="#68E1FD"/>
<path d="M293.402 191.716C296.083 187.903 301.724 187.269 306.127 188.85C310.53 190.431 314.059 193.695 317.715 196.595C321.371 199.495 325.579 202.183 330.253 202.259C332.12 202.259 334.011 201.887 335.852 202.209C337.546 202.565 339.063 203.495 340.146 204.841C341.229 206.187 341.81 207.865 341.79 209.59C328.367 208.823 314.917 210.543 302.123 214.663C295.82 216.692 288.55 219.203 282.976 215.601C280.898 214.249 279.294 212.135 276.97 211.281C272.177 209.522 266.79 213.817 261.929 212.203C259.834 211.492 258.273 209.784 256.423 208.558C250.307 204.509 241.815 206.225 235.351 202.75C234.802 202.516 234.309 202.169 233.904 201.732C233.5 201.295 233.192 200.777 233.001 200.213C232.662 198.607 234.087 197.068 235.673 196.603C237.26 196.138 238.948 196.409 240.594 196.527C244.818 196.808 249.042 195.968 252.835 194.092C254.43 193.297 256.084 192.291 257.849 192.545C261.352 193.044 263.931 198.226 267.078 196.637C264.779 197.795 265.636 190.084 266.043 189.34C267.367 186.964 271.676 185.29 274.162 184.656C281.203 182.838 289.406 185.553 293.402 191.716Z" fill="#68E1FD"/>
<path d="M293.402 191.716C296.083 187.903 301.724 187.269 306.127 188.85C310.53 190.431 314.059 193.695 317.715 196.595C321.371 199.495 325.579 202.183 330.253 202.259C332.12 202.259 334.011 201.887 335.852 202.209C337.546 202.565 339.063 203.495 340.146 204.841C341.229 206.187 341.81 207.865 341.79 209.59C328.367 208.823 314.917 210.543 302.123 214.663C295.82 216.692 288.55 219.203 282.976 215.601C280.898 214.249 279.294 212.135 276.97 211.281C272.177 209.522 266.79 213.817 261.929 212.203C259.834 211.492 258.273 209.784 256.423 208.558C250.307 204.509 241.815 206.225 235.351 202.75C234.802 202.516 234.309 202.169 233.904 201.732C233.5 201.295 233.192 200.777 233.001 200.213C232.662 198.607 234.087 197.068 235.673 196.603C237.26 196.138 238.948 196.409 240.594 196.527C244.818 196.808 249.042 195.968 252.835 194.092C254.43 193.297 256.084 192.291 257.849 192.545C261.352 193.044 263.931 198.226 267.078 196.637C264.779 197.795 265.636 190.084 266.043 189.34C267.367 186.964 271.676 185.29 274.162 184.656C281.203 182.838 289.406 185.553 293.402 191.716Z" fill="url(#paint0_linear)"/>
<path d="M244.53 0L153.649 96.4964H195.547V191.437H287.811V95.7186H327.564L244.53 0Z" fill="#68E1FD"/>
<path d="M44.2571 184.529L100.34 123.18L158.272 183.329H122.693V260.785H73.3038V184.529H44.2571Z" fill="#68E1FD"/>
<path d="M324.985 153.339L381.068 91.99L439 152.139H403.421V229.594H354.032V153.339H324.985Z" fill="#68E1FD"/>
<path d="M293.589 243.08C291.892 250.69 296.507 259.144 303.819 261.808C309.97 264.048 316.773 262.417 323.331 262.425C334.8 262.425 345.701 267.599 357.145 268.343C364.722 268.826 372.297 267.371 379.151 264.116C383.112 262.231 386.921 259.728 391.273 259.178C394.921 258.713 398.73 259.677 402.259 258.629C408.257 256.853 411.251 249.252 409.088 243.41C406.925 237.567 400.741 233.822 394.505 233.264C388.448 232.757 382.188 234.82 376.368 233.078C369.861 231.133 365.399 224.86 358.935 222.763C349.468 219.702 339.89 226.449 332.23 232.79C331.411 230.501 329.922 228.51 327.957 227.072C325.991 225.634 323.638 224.816 321.202 224.724C316.196 224.623 311.251 228.766 306.704 230.643C300.647 233.23 295.2 236.003 293.589 243.08Z" fill="#68E1FD"/>
<path d="M293.589 243.08C291.892 250.69 296.507 259.144 303.819 261.808C309.97 264.048 316.773 262.417 323.331 262.425C334.8 262.425 345.701 267.599 357.145 268.343C364.722 268.826 372.297 267.371 379.151 264.116C383.112 262.231 386.921 259.728 391.273 259.178C394.921 258.713 398.73 259.677 402.259 258.629C408.257 256.853 411.251 249.252 409.088 243.41C406.925 237.567 400.741 233.822 394.505 233.264C388.448 232.757 382.188 234.82 376.368 233.078C369.861 231.133 365.399 224.86 358.935 222.763C349.468 219.702 339.89 226.449 332.23 232.79C331.411 230.501 329.922 228.51 327.957 227.072C325.991 225.634 323.638 224.816 321.202 224.724C316.196 224.623 311.251 228.766 306.704 230.643C300.647 233.23 295.2 236.003 293.589 243.08Z" fill="url(#paint1_linear)"/>
<path d="M0.339283 255.61C-1.35737 263.22 3.25753 271.675 10.5786 274.338C16.7289 276.579 23.524 274.938 30.0901 274.955C41.5509 274.955 52.4519 280.121 63.8958 280.874C71.4754 281.357 79.0531 279.902 85.9099 276.646C89.8716 274.769 93.6721 272.258 98.0325 271.708C101.68 271.252 105.489 272.216 109.018 271.167C115.007 269.392 118.011 261.782 115.847 255.948C113.684 250.115 107.491 246.352 101.265 245.803C95.2075 245.287 88.9469 247.35 83.1274 245.617C76.6122 243.672 72.15 237.39 65.6943 235.301C56.227 232.232 46.6494 238.988 38.989 245.321C38.1687 243.033 36.6798 241.043 34.7141 239.607C32.7485 238.171 30.3963 237.354 27.9608 237.263C22.9556 237.162 18.0099 241.296 13.4629 243.181C7.39735 245.76 1.96807 248.576 0.339283 255.61Z" fill="#68E1FD"/>
<path d="M0.339283 255.61C-1.35737 263.22 3.25753 271.675 10.5786 274.338C16.7289 276.579 23.524 274.938 30.0901 274.955C41.5509 274.955 52.4519 280.121 63.8958 280.874C71.4754 281.357 79.0531 279.902 85.9099 276.646C89.8716 274.769 93.6721 272.258 98.0325 271.708C101.68 271.252 105.489 272.216 109.018 271.167C115.007 269.392 118.011 261.782 115.847 255.948C113.684 250.115 107.491 246.352 101.265 245.803C95.2075 245.287 88.9469 247.35 83.1274 245.617C76.6122 243.672 72.15 237.39 65.6943 235.301C56.227 232.232 46.6494 238.988 38.989 245.321C38.1687 243.033 36.6798 241.043 34.7141 239.607C32.7485 238.171 30.3963 237.354 27.9608 237.263C22.9556 237.162 18.0099 241.296 13.4629 243.181C7.39735 245.76 1.96807 248.576 0.339283 255.61Z" fill="url(#paint2_linear)"/>
<g clip-path="url(#clip1)">
<path opacity="0.18" d="M351.003 357.609C351.003 361.989 350.507 366.356 349.525 370.629C340.789 408.839 294.221 438 238.099 438C214.945 438 193.421 433.035 175.509 424.524C163.149 418.652 152.506 411.09 144.237 402.298C140.721 399.042 137.627 395.379 135.023 391.389C111.276 355.43 120.181 291.267 160.358 291.801C165.15 291.894 169.944 291.655 174.701 291.085C185.99 289.663 192.838 286.333 196.985 282.722C198.003 281.839 198.931 280.861 199.755 279.802C205.526 272.317 214.036 267.293 223.509 265.779C307.311 252.68 337.828 293.446 347.288 327.794C349.858 337.056 351.097 346.621 350.971 356.215C350.996 356.678 351.003 357.143 351.003 357.609Z" fill="#68E1FD"/>
<path opacity="0.05" d="M182.319 409.768L137.605 395.035C137.605 395.035 121.151 375.118 122.068 341.623L188.608 368.2C188.608 368.2 217.541 360.087 234.779 359.275C252.016 358.463 328.433 350.634 328.433 350.634C328.433 350.634 343.181 367.131 336.622 372.178C330.063 377.225 282.852 378.075 282.852 378.075L250.021 359.299L222.408 380.117L201.368 399.489L182.319 409.768Z" fill="#000405"/>
<path d="M255.621 335.808L254.919 337.549C254.919 337.549 257.026 339.368 255.621 340.149C255.621 340.149 262.932 339.707 255.621 335.808Z" fill="#3F3D56"/>
<path d="M172.065 392.174L171.215 394.524L178.192 397.707C178.192 397.707 184.667 398.502 186.658 396.837C187.866 395.798 188.748 394.448 189.204 392.941L172.065 392.174Z" fill="#333333"/>
<path d="M190.334 370.122C190.334 370.122 198.544 369.982 200.946 372.891C203.348 375.8 194.717 384.413 194.717 384.413L174.811 385.784L190.334 370.122Z" fill="#68E1FD"/>
<path d="M190.334 370.122C190.334 370.122 198.544 369.982 200.946 372.891C203.348 375.8 194.717 384.413 194.717 384.413L174.811 385.784L190.334 370.122Z" fill="url(#paint3_linear)"/>
<path d="M190.04 382.611C190.04 382.611 207.287 384.129 210.286 385.208C215.953 387.288 214.268 395.059 211.708 395.888C209.57 396.59 193.305 402.398 188.105 404.258C187.674 404.41 187.199 404.395 186.779 404.216C186.359 404.037 186.025 403.707 185.847 403.295L184.046 399.146C183.947 398.919 183.898 398.674 183.903 398.427C183.908 398.181 183.966 397.938 184.073 397.715C184.181 397.491 184.336 397.293 184.528 397.132C184.72 396.971 184.944 396.852 185.187 396.782L195.419 393.811C195.419 393.811 180.229 395.305 177.16 394.641C170.365 393.188 163.666 384.704 167.233 377.297C170.801 369.889 190.04 382.611 190.04 382.611Z" fill="#68E1FD"/>
<path d="M190.04 382.611C190.04 382.611 207.287 384.129 210.286 385.208C215.953 387.288 214.268 395.059 211.708 395.888C209.57 396.59 193.305 402.398 188.105 404.258C187.674 404.41 187.199 404.395 186.779 404.216C186.359 404.037 186.025 403.707 185.847 403.295L184.046 399.146C183.947 398.919 183.898 398.674 183.903 398.427C183.908 398.181 183.966 397.938 184.073 397.715C184.181 397.491 184.336 397.293 184.528 397.132C184.72 396.971 184.944 396.852 185.187 396.782L195.419 393.811C195.419 393.811 180.229 395.305 177.16 394.641C170.365 393.188 163.666 384.704 167.233 377.297C170.801 369.889 190.04 382.611 190.04 382.611Z" fill="url(#paint4_linear)"/>
<path d="M235.097 340.732L234.3 343.774L238.387 347.307C238.387 347.307 237.218 347.307 236.281 349.088L235.908 352.984C235.908 352.984 238.654 358.781 246.232 353.714L258.521 364.315L285.78 354.947L286.363 351.322L235.097 340.732Z" fill="#3F3D56"/>
<path d="M308.997 343.64L295.436 338.443C294.6 337.985 293.662 337.732 292.703 337.705C291.745 337.677 290.793 337.876 289.93 338.285C289.166 338.637 288.515 339.187 288.048 339.874C287.581 340.561 287.315 341.36 287.279 342.184C286.812 347.187 289.572 370.211 289.572 370.211C290.59 370.596 291.651 370.861 292.733 371.003C293.681 371.187 294.66 371.167 295.6 370.943C296.54 370.718 297.418 370.295 298.172 369.704L298.435 352.384C298.435 352.384 313.72 361.597 319.173 360.83C325.276 359.973 335.094 355.088 328.461 343.757C321.828 332.426 308.997 343.64 308.997 343.64Z" fill="#68E1FD"/>
<path d="M308.997 343.64L295.436 338.443C294.6 337.985 293.662 337.732 292.703 337.705C291.745 337.677 290.793 337.876 289.93 338.285C289.166 338.637 288.515 339.187 288.048 339.874C287.581 340.561 287.315 341.36 287.279 342.184C286.812 347.187 289.572 370.211 289.572 370.211C290.59 370.596 291.651 370.861 292.733 371.003C293.681 371.187 294.66 371.167 295.6 370.943C296.54 370.718 297.418 370.295 298.172 369.704L298.435 352.384C298.435 352.384 313.72 361.597 319.173 360.83C325.276 359.973 335.094 355.088 328.461 343.757C321.828 332.426 308.997 343.64 308.997 343.64Z" fill="url(#paint5_linear)"/>
<path d="M297.761 313.174C297.761 313.174 293.779 325.543 292.704 328.195C291.63 330.847 272.802 333.053 272.802 333.053L273.504 340.992L294.945 338.395L301.392 329.298L297.761 313.174Z" fill="#68E1FD"/>
<path opacity="0.61" d="M297.761 313.174C297.761 313.174 293.779 325.543 292.704 328.195C291.63 330.847 272.802 333.053 272.802 333.053L273.504 340.992L294.945 338.395L301.392 329.298L297.761 313.174Z" fill="url(#paint6_linear)"/>
<path d="M308.485 309.07L312.849 311.434C320.957 314.966 323.913 322.829 328.45 343.812C328.45 343.812 324.616 352.179 310.5 346.553C310.5 346.553 300.921 332.896 299.341 327.777C297.761 322.658 293.783 313.849 301.097 310.481C308.411 307.113 308.485 309.07 308.485 309.07Z" fill="#68E1FD"/>
<path opacity="0.05" d="M317.842 327.085L323.158 346.659C323.158 346.659 317.733 349.887 310.482 346.543C303.232 343.199 305.798 339.872 303.46 335.808L310.563 332.039L317.842 327.085Z" fill="#000405"/>
<path d="M307.87 308.223C307.589 308.816 307.187 309.348 306.69 309.785C306.192 310.223 305.609 310.557 304.975 310.769C304.342 310.98 303.671 311.064 303.003 311.015C302.335 310.966 301.684 310.786 301.09 310.485C301.09 310.485 296.988 317.464 302.845 316.631C305.949 316.189 308.667 311.68 309.187 309.395L307.87 308.223Z" fill="#333333"/>
<path d="M308.133 302.625C308.133 302.704 307.947 306.147 307.803 308.628C307.698 310.547 306.854 312.357 305.44 313.695C304.621 314.526 303.636 315.184 302.547 315.631C302.284 315.726 301.999 315.749 301.724 315.696C301.449 315.644 301.194 315.518 300.988 315.333C300.781 315.147 300.63 314.909 300.552 314.645C300.474 314.381 300.472 314.101 300.545 313.836C300.686 313.318 300.826 312.722 300.939 312.098C301.17 310.803 301.29 309.402 300.914 308.412C300.903 308.374 300.89 308.338 300.875 308.302C300.665 307.792 300.875 307.233 301.371 306.671C302.052 305.883 303.246 305.085 304.439 304.41C305.635 303.747 306.869 303.151 308.133 302.625V302.625Z" fill="url(#paint7_linear)"/>
<path d="M301.722 311.835C301.478 311.954 301.219 312.043 300.953 312.098C301.184 310.803 301.304 309.402 300.928 308.412L301.385 306.671L301.736 305.376L304.468 304.41L307.231 303.433C306.543 308.223 303.92 310.831 301.722 311.835Z" fill="url(#paint8_linear)"/>
<path d="M301.023 288.981C299.943 289.043 298.887 289.321 297.923 289.799C296.958 290.277 296.105 290.944 295.417 291.759C294.73 292.574 294.222 293.519 293.926 294.534C293.63 295.55 293.553 296.614 293.698 297.66C293.944 300.77 294.763 303.81 296.114 306.637C298.674 310.899 305.135 307.391 306.156 305.636C307.178 303.882 311.041 295.944 309.422 293.686C308.362 292.151 305.215 288.82 301.023 288.981Z" fill="url(#paint9_linear)"/>
<path d="M294.204 285.966L295.531 286.631C294.739 286.613 293.954 286.779 293.241 287.116C292.528 287.452 291.907 287.95 291.43 288.567C290.217 289.749 289.526 291.348 289.506 293.021L291.763 291.993C291.763 291.993 291.591 294.707 295.861 294.916C300.131 295.125 304.657 295.292 304.657 295.292L303.217 293.333C303.217 293.333 305.869 294.361 306.336 295.334C306.754 296.87 307.055 298.434 307.234 300.014C307.234 300.014 308.288 297.335 308.734 297.92C309.18 298.506 308.27 300.936 307.712 301.467C307.154 301.998 307.249 303.598 307.196 303.728C307.143 303.858 309.85 301.672 309.97 300.922C310.089 300.171 312.779 292.569 311.023 290.986L312.077 290.91C311.446 290.492 310.725 290.22 309.97 290.115C309.97 290.115 302.986 281.108 294.204 285.966Z" fill="#333333"/>
<path d="M272.778 334.047C271.426 333.816 270.097 333.472 268.806 333.019C266.737 332.496 264.62 332.173 262.486 332.056C262.486 332.056 262.075 333.427 263.188 333.708C264.301 333.989 265.576 334.448 265.576 334.448L260.934 334.904L256.636 335.476C256.636 335.476 257.047 336.846 258.202 336.846C258.537 337.436 258.987 337.956 259.526 338.378C260.343 339.099 261.101 339.882 261.794 340.718C262.377 341.167 262.999 341.567 263.652 341.914C263.89 341.914 272.939 340.886 273.483 340.043L272.778 334.047Z" fill="url(#paint10_linear)"/>
<path d="M310.525 346.553C310.525 346.553 311.929 353.375 314.011 355.091C314.011 355.091 300.359 365.486 299.724 373.007C298.835 383.402 332.428 367.282 332.428 367.282L330.104 361.539L315.539 367.84C315.539 367.84 324.401 361.995 328.805 356.146C332.267 351.507 330.385 347.238 328.454 343.921C328.433 343.812 320.072 350.555 310.525 346.553Z" fill="#68E1FD"/>
<path d="M310.525 346.553C310.525 346.553 311.929 353.375 314.011 355.091C314.011 355.091 300.359 365.486 299.724 373.007C298.835 383.402 332.428 367.282 332.428 367.282L330.104 361.539L315.539 367.84C315.539 367.84 324.401 361.995 328.805 356.146C332.267 351.507 330.385 347.238 328.454 343.921C328.433 343.812 320.072 350.555 310.525 346.553Z" fill="url(#paint11_linear)"/>
<path d="M330.065 361.536L332.586 360.69L333.833 363.914L331.048 365.771L330.065 361.536Z" fill="url(#paint12_linear)"/>
<path d="M292.996 372.421L292.757 370.993C293.707 371.142 294.677 371.104 295.612 370.881C296.546 370.658 297.425 370.255 298.196 369.694L298.344 372.034C297.551 372.517 296.65 372.804 295.719 372.871C294.787 372.939 293.853 372.784 292.996 372.421Z" fill="url(#paint13_linear)"/>
<path d="M292.943 371.983L286.974 374.086C286.974 374.086 283.656 373.295 282.992 375.114C282.557 376.048 282.514 377.111 282.873 378.075C282.873 378.075 284.439 379.445 288.34 378.647C292.241 377.849 298.621 375.906 298.621 375.906L298.382 372.099C297.525 372.481 296.591 372.668 295.649 372.648C294.707 372.628 293.782 372.4 292.943 371.983ZM333.064 359.95C333.064 359.95 331.565 360.549 331.737 360.936C331.909 361.324 332.439 360.471 333.78 363.928L332.92 364.541L334.774 368.437C334.283 368.798 333.893 369.274 333.64 369.822C333.388 370.369 333.282 370.97 333.331 371.568C333.517 372.517 335.241 372.647 336.621 372.181C338.001 371.715 338.598 368.724 338.598 368.724C338.598 368.724 337.695 361.553 335.838 360.357C333.98 359.162 333.064 359.95 333.064 359.95Z" fill="#333333"/>
<path d="M288.048 352.662L259.866 361.327L246.944 350.856C241.73 356.05 235.469 352.155 236.33 349.112C237.19 346.07 242.966 347.176 242.966 347.176L235.136 340.759L249.785 337.161C249.876 337.665 250.487 340.108 254.044 340.303C258.023 340.526 258.925 337.367 255.621 335.822L264.909 333.471L288.048 352.662Z" fill="#68E1FD"/>
<path opacity="0.05" d="M280.52 349.26C280.328 349.311 280.146 349.394 279.983 349.506C279.833 349.647 279.699 349.804 279.583 349.972C279.063 350.603 278.217 350.853 277.448 351.151C276.579 351.486 275.753 351.921 274.99 352.446C274.875 352.51 274.785 352.608 274.733 352.727C274.618 353.094 275.2 353.275 275.397 353.608C275.455 353.733 275.475 353.871 275.453 354.007C275.432 354.143 275.371 354.269 275.278 354.372C275.088 354.573 274.863 354.74 274.614 354.865C273.277 355.662 272.108 356.702 271.173 357.928C275.421 355.772 279.85 353.972 284.411 352.549C284.766 352.463 285.1 352.307 285.39 352.09C285.535 351.98 285.641 351.829 285.694 351.658C285.748 351.487 285.746 351.304 285.689 351.134C285.612 350.966 285.882 350.921 285.742 350.791C285.057 350.195 283.905 349.198 282.989 348.468C283.003 348.475 281.24 349.027 280.52 349.26Z" fill="#000405"/>
<path d="M317.965 315.137C317.465 314.562 316.816 314.129 316.085 313.881C315.355 313.634 314.57 313.582 313.812 313.73C313.054 313.879 312.351 314.223 311.775 314.726C311.2 315.23 310.773 315.875 310.539 316.594C310.286 317.385 310.019 318.334 309.756 319.502C308.351 325.817 301.992 339.55 301.992 339.55L283.526 349.284L288.579 355.598L310.191 345.203C310.191 345.203 319.77 324.556 319.598 320.619C319.661 318.67 319.089 316.75 317.965 315.137Z" fill="#68E1FD"/>
<path opacity="0.61" d="M317.965 315.137C317.465 314.562 316.816 314.129 316.085 313.881C315.355 313.634 314.57 313.582 313.812 313.73C313.054 313.879 312.351 314.223 311.775 314.726C311.2 315.23 310.773 315.875 310.539 316.594C310.286 317.385 310.019 318.334 309.756 319.502C308.351 325.817 301.992 339.55 301.992 339.55L283.526 349.284L288.579 355.598L310.191 345.203C310.191 345.203 319.77 324.556 319.598 320.619C319.661 318.67 319.089 316.75 317.965 315.137Z" fill="url(#paint14_linear)"/>
<path d="M285.102 350.168C283.768 350.518 282.405 350.756 281.029 350.88C278.925 351.253 276.863 351.826 274.874 352.593C274.874 352.593 275.085 353.998 276.201 353.803C277.318 353.608 278.68 353.518 278.68 353.518L274.702 355.845L271.039 358.13C271.039 358.13 271.995 359.21 273.041 358.726C273.602 359.125 274.238 359.413 274.912 359.573C275.959 359.89 276.979 360.286 277.964 360.755C278.687 360.925 279.423 361.033 280.165 361.08C280.38 360.988 288.221 356.311 288.273 355.338L285.102 350.168Z" fill="url(#paint15_linear)"/>
<path d="M223.394 347.66L230.136 350.257V354.156C230.136 354.156 222.06 354.324 222.06 357.74C222.06 361.156 229.676 363.835 234.781 359.275L246.404 365.785L245.982 369.122L210.644 381.597L190.398 357.493V353.597L223.394 347.66Z" fill="#3F3D56"/>
<path d="M223.394 343.812L230.136 350.243C230.136 350.243 222.06 350.414 222.06 353.83C222.06 357.246 229.676 359.926 234.781 355.362L246.404 365.757L211.016 377.934L190.398 353.662L204.289 349.517C204.289 349.517 199.871 346.618 204.117 344.682C204.901 344.307 205.752 344.082 206.624 344.021C209.956 343.891 210.486 345.566 210.925 347.399V347.543L223.394 343.812Z" fill="#68E1FD"/>
<path opacity="0.05" d="M196.012 351.987C196.012 351.987 201.631 363.904 204.303 365.88C205.791 366.984 216.083 370.259 224.823 370.722C225.641 370.766 228.197 368.454 229.405 368.759C231.161 369.207 229.086 370.746 229.493 370.766C234.76 371.01 237.678 368.759 237.678 368.759L209.938 378.53L191.353 352.525L196.012 351.987Z" fill="#000405"/>
<path d="M223.078 373.319C224.019 372.118 225.096 371.023 226.287 370.057C227.262 369.489 228.311 369.052 229.405 368.759C229.405 368.759 229.897 370.215 229.054 370.489C228.212 370.763 227.727 372.202 227.727 372.202C227.727 372.202 233.858 373.346 234.599 372.993C235.34 372.641 235.41 373.761 233.963 373.97C232.516 374.179 232.559 376.204 231.575 376.368C230.592 376.533 229.135 377.448 227.688 377.787C226.012 377.928 224.323 377.852 222.667 377.561L223.078 373.319Z" fill="url(#paint16_linear)"/>
<path d="M194.948 356.027C195.743 351.807 195.215 347.453 193.433 343.531C191.651 339.61 188.697 336.304 184.959 334.047C183.627 333.157 182.102 332.583 180.503 332.372C174.08 332.008 167.233 377.29 167.233 377.29C167.233 377.29 170.327 386.061 179.692 386.904C188.344 387.685 190.029 382.604 190.029 382.604L194.948 356.027Z" fill="#68E1FD"/>
<path opacity="0.61" d="M194.948 356.027C195.743 351.807 195.215 347.453 193.433 343.531C191.651 339.61 188.697 336.304 184.959 334.047C183.627 333.157 182.102 332.583 180.503 332.372C174.08 332.008 167.233 377.29 167.233 377.29C167.233 377.29 170.327 386.061 179.692 386.904C188.344 387.685 190.029 382.604 190.029 382.604L194.948 356.027Z" fill="url(#paint17_linear)"/>
<path d="M180.503 332.365C180.503 332.365 181.444 325.533 181.83 321.089C182.216 316.645 183.712 310.694 191.356 311.471C199.001 312.249 198.997 323.532 196.873 328.26C194.748 332.988 191.925 332.834 191.925 332.834C191.925 332.834 188.119 332.015 188.249 336.486L180.503 332.365Z" fill="url(#paint18_linear)"/>
<path d="M183.392 310.512C182.279 311.554 181.472 312.869 181.057 314.319C180.713 315.495 180.478 316.699 180.355 317.916L181.138 317.087C181.094 319.173 180.93 321.255 180.647 323.323C180.357 325.251 180.24 327.2 180.295 329.148L181.718 329.082L183.473 331.227L185.45 329.925L186.935 329.161L188.263 325.975C187.939 325.744 187.702 325.416 187.588 325.041C187.473 324.666 187.487 324.265 187.627 323.899C188.119 322.6 189.323 322.298 189.604 323.066C189.819 324.022 189.937 324.996 189.955 325.975L192.062 320.15C192.062 320.15 193.389 318.341 194.545 319.592C195.237 320.345 196.112 320.917 197.09 321.253L196.388 319.304L198.298 319.784L198.151 317.563L199.573 318.536C199.573 318.536 200.208 314.939 199 313.339C197.793 311.739 193.028 305.38 183.392 310.512Z" fill="#333333"/>
<path d="M223.274 372.164L207.635 370.513C205.521 370.117 203.588 369.084 202.107 367.56C200.626 366.035 199.672 364.096 199.38 362.016L193.596 344.799C193.247 343.718 192.594 342.755 191.712 342.018C190.831 341.281 189.755 340.8 188.607 340.629C187.701 340.497 186.776 340.591 185.918 340.903C185.06 341.214 184.297 341.733 183.701 342.411C183.104 343.089 182.694 343.903 182.508 344.778C182.322 345.653 182.367 346.56 182.638 347.413L188.607 368.2C188.888 370.482 189.965 372.601 191.655 374.202C193.346 375.803 195.548 376.789 197.894 376.995L222.414 380.117L223.274 372.164Z" fill="#68E1FD"/>
<path opacity="0.61" d="M223.274 372.164L207.635 370.513C205.521 370.117 203.588 369.084 202.107 367.56C200.626 366.035 199.672 364.096 199.38 362.016L193.596 344.799C193.247 343.718 192.594 342.755 191.712 342.018C190.831 341.281 189.755 340.8 188.607 340.629C187.701 340.497 186.776 340.591 185.918 340.903C185.06 341.214 184.297 341.733 183.701 342.411C183.104 343.089 182.694 343.903 182.508 344.778C182.322 345.653 182.367 346.56 182.638 347.413L188.607 368.2C188.888 370.482 189.965 372.601 191.655 374.202C193.346 375.803 195.548 376.789 197.894 376.995L222.414 380.117L223.274 372.164Z" fill="url(#paint19_linear)"/>
<path d="M184.667 397.433L180.064 398.461L181.907 403.659L186.725 402.573C186.725 402.573 187.999 398.553 184.667 397.433Z" fill="url(#paint20_linear)"/>
<path d="M178.192 397.707C178.192 397.707 181.205 397.084 181.703 398.084C182.202 399.084 180.601 399.019 180.92 400.438C181.188 401.517 181.52 402.58 181.914 403.621L183.399 403.295L183.705 405.008C183.77 405.303 183.938 405.567 184.18 405.754C184.422 405.942 184.723 406.042 185.032 406.036C188.508 406.232 188.045 409.308 186.823 409.425L182.325 409.75L179.951 407.815C179.667 407.622 179.442 407.356 179.302 407.047C178.42 405.385 175.755 399.201 178.192 397.707Z" fill="#333333"/>
<path opacity="0.4" d="M251.362 291.75C251.132 292.075 250.932 292.419 250.765 292.778C249.757 294.882 246.348 302.406 245.849 308.926C245.75 310.513 245.057 312.009 243.903 313.13C242.748 314.251 241.211 314.919 239.585 315.008L233.496 315.35L231.505 315.453C229.906 315.545 228.326 315.07 227.058 314.115C225.79 313.159 224.919 311.789 224.605 310.256C223.359 304.253 220.704 295.081 215.546 291.027C215.546 291.027 192.803 270.706 207.968 248.045C208.988 246.514 210.128 245.062 211.378 243.704C227.295 226.511 253.567 234.343 259.88 250.313C266.194 266.283 253.872 288.307 251.362 291.75Z" fill="#68E1FD"/>
<path d="M246.72 317.813C246.19 319.112 245.579 319.736 246.109 320.596C246.639 321.456 248.166 323.768 240.417 324.796C238.812 325.012 237.195 325.138 235.575 325.173H233.04L231.554 325.108C229.858 325.005 228.489 324.837 227.576 324.693C227.08 324.622 226.604 324.45 226.181 324.188C225.757 323.926 225.395 323.58 225.118 323.172C224.982 322.866 224.937 322.528 224.986 322.198C225.036 321.867 225.179 321.557 225.399 321.301C225.525 321.186 225.62 321.042 225.674 320.882C225.728 320.722 225.74 320.55 225.708 320.385C225.676 320.219 225.602 320.064 225.492 319.933C225.382 319.803 225.24 319.702 225.079 319.64C224.66 319.255 224.412 318.726 224.387 318.165C224.362 317.605 224.563 317.057 224.946 316.638C225.137 316.447 225.295 316.228 225.413 315.987C225.579 315.617 225.638 315.209 225.584 314.808C225.53 314.407 225.366 314.028 225.107 313.712L224.893 313.455C224.598 313.065 224.382 312.623 224.258 312.153C224.129 311.83 224.09 311.48 224.146 311.138C224.203 310.796 224.351 310.474 224.577 310.207C224.891 311.739 225.761 313.109 227.029 314.064C228.296 315.019 229.875 315.494 231.474 315.401L233.464 315.285C233.52 315.209 233.565 315.126 233.598 315.038C233.949 314.209 233.159 313.246 233.559 311.954L235.055 311.889C238.733 311.675 242.365 310.984 245.856 309.834C246.237 310.142 246.498 310.568 246.595 311.042C246.691 311.516 246.618 312.007 246.386 312.434C246.249 312.722 246.155 313.028 246.109 313.342C246.018 314.001 246.133 314.671 246.439 315.264C246.474 315.337 246.514 315.406 246.558 315.473C246.771 315.824 246.896 316.218 246.924 316.625C246.952 317.031 246.882 317.438 246.72 317.813V317.813Z" fill="#68E1FD"/>
<path d="M224.591 310.2C231.537 308.444 238.81 308.315 245.817 309.823C245.817 309.823 234.314 314.421 224.591 310.2Z" fill="#333333"/>
<path d="M234.778 325.05C234.2 325.161 233.61 325.2 233.022 325.166L231.533 325.101C229.837 324.998 228.471 324.83 227.555 324.687C227.059 324.616 226.583 324.444 226.16 324.182C225.736 323.919 225.374 323.573 225.097 323.165C224.96 322.859 224.914 322.522 224.963 322.191C225.012 321.861 225.154 321.55 225.374 321.295C225.5 321.179 225.595 321.034 225.649 320.874C225.703 320.713 225.715 320.542 225.683 320.376C225.651 320.211 225.577 320.056 225.467 319.926C225.357 319.795 225.215 319.695 225.055 319.633C224.635 319.248 224.387 318.719 224.363 318.158C224.338 317.597 224.54 317.049 224.925 316.631C225.316 316.249 225.549 315.739 225.578 315.2C225.607 314.66 225.431 314.129 225.083 313.709C224.692 313.26 224.412 312.73 224.261 312.16C224.132 311.838 224.094 311.487 224.149 311.145C224.205 310.803 224.352 310.482 224.577 310.214C227.905 311.458 231.459 312.023 235.02 311.876L235.192 311.955C235.192 311.955 233.865 312.448 234.209 313.579C234.553 314.709 235.059 316.748 233.917 318.074C232.776 319.4 234.971 319.763 234.556 321.257V321.401C234.389 321.846 234.259 322.305 234.17 322.771C233.931 323.946 234.044 324.947 234.778 325.05Z" fill="url(#paint21_linear)"/>
<path opacity="0.49" d="M235.045 311.862C231.48 312.013 227.922 311.447 224.591 310.2C223.355 304.235 220.701 295.063 215.542 291.013C215.542 291.013 192.799 270.692 207.965 248.031C208.984 246.499 210.124 245.048 211.374 243.689L213.418 243.508C213.418 243.508 227.021 236.515 232.79 244.169C238.559 251.823 225.968 260.475 225.308 274.454C224.647 288.433 241.042 291.02 235.045 311.862Z" fill="white"/>
<path d="M244.929 321.411C243.946 322.034 240.417 323.206 234.128 322.781C231.18 322.553 228.262 322.048 225.413 321.274C225.539 321.159 225.634 321.014 225.688 320.854C225.742 320.694 225.754 320.523 225.722 320.357C225.69 320.191 225.616 320.036 225.506 319.906C225.396 319.775 225.254 319.674 225.093 319.612C228.147 320.634 231.346 321.182 234.574 321.236C238.198 321.335 241.816 320.897 245.305 319.938C245.305 319.938 246.4 320.475 244.929 321.411Z" fill="url(#paint22_linear)"/>
<path d="M246.428 315.278C245.248 316.241 240.789 318.019 234.342 317.409C231.315 317.302 228.314 316.817 225.413 315.967C225.579 315.597 225.638 315.19 225.584 314.789C225.53 314.389 225.365 314.011 225.107 313.695L224.893 313.435C225.318 313.592 226.034 313.812 227 314.058C229.176 314.595 231.397 314.939 233.636 315.086H234.669C238.568 315.239 242.459 314.639 246.119 313.318C246.013 313.987 246.12 314.671 246.428 315.278V315.278Z" fill="url(#paint23_linear)"/>
<path d="M202.273 346.659L202.354 350.085L204.303 349.5C204.303 349.5 202.273 348.126 202.273 346.659Z" fill="#3F3D56"/>
<path d="M244.989 277.215L244.564 276.935C245.204 275.045 245.43 273.046 245.227 271.065C244.722 266.872 241.688 264.312 236.695 263.87C229.04 263.161 226.01 267.015 224.886 269.373C221.642 275.961 224.577 286.631 229.254 291.417C235.02 297.29 232.794 308.364 231.979 311.632C231.953 311.713 231.935 311.795 231.926 311.879V312.098L233.103 312.489L233.187 312.167C233.884 309.55 234.289 306.868 234.395 304.167C234.602 298.342 233.173 293.631 230.248 290.547C225.929 286.131 223.124 275.934 226.105 269.9C227.913 266.286 231.561 264.621 236.663 265.083C242.215 265.597 243.749 268.705 244.058 271.209C244.215 272.926 244.018 274.656 243.479 276.297C242.239 275.687 240.816 275.531 239.469 275.859C236.839 276.564 235.178 279.223 234.247 281.32C234.015 281.841 233.943 282.418 234.041 282.978C234.139 283.539 234.402 284.059 234.799 284.476C235.186 284.883 235.685 285.173 236.237 285.311C236.789 285.449 237.369 285.429 237.91 285.254C240.28 284.435 242.752 281.598 244.142 278.137L244.279 278.23C248.142 280.882 245.385 284.969 242.215 289.708C239.957 293.028 237.155 297.16 236.853 301.23C236.502 304.876 236.663 307.757 236.916 311.427L236.934 311.718H238.198L238.18 311.375C237.934 307.713 237.787 304.865 238.117 301.323C238.387 297.595 240.968 293.761 243.244 290.359L243.345 290.204C246.65 285.26 249.768 280.566 244.989 277.215ZM237.46 284.068C237.155 284.17 236.825 284.182 236.513 284.102C236.201 284.022 235.92 283.854 235.705 283.619C235.473 283.379 235.32 283.078 235.264 282.753C235.208 282.428 235.251 282.094 235.389 281.793C236.056 280.282 237.517 277.647 239.788 277.03C240.113 276.944 240.449 276.9 240.786 276.9C241.561 276.926 242.321 277.118 243.012 277.462C241.688 280.727 239.437 283.424 237.46 284.075V284.068ZM243.826 277.185L243.883 277.222L243.826 277.185Z" fill="white"/>
</g>
</g>
<defs>
<linearGradient id="paint0_linear" x1="293.589" y1="181.207" x2="282.857" y2="221.893" gradientUnits="userSpaceOnUse">
<stop stop-color="white" stop-opacity="0"/>
<stop offset="0.06" stop-color="white" stop-opacity="0.13"/>
<stop offset="0.16" stop-color="white" stop-opacity="0.33"/>
<stop offset="0.26" stop-color="white" stop-opacity="0.51"/>
<stop offset="0.37" stop-color="white" stop-opacity="0.66"/>
<stop offset="0.48" stop-color="white" stop-opacity="0.79"/>
<stop offset="0.59" stop-color="white" stop-opacity="0.88"/>
<stop offset="0.71" stop-color="white" stop-opacity="0.95"/>
<stop offset="0.84" stop-color="white" stop-opacity="0.99"/>
<stop offset="1" stop-color="white"/>
</linearGradient>
<linearGradient id="paint1_linear" x1="356.585" y1="219.88" x2="343.866" y2="287.678" gradientUnits="userSpaceOnUse">
<stop offset="0.02" stop-color="white" stop-opacity="0"/>
<stop offset="0.06" stop-color="white" stop-opacity="0.13"/>
<stop offset="0.13" stop-color="white" stop-opacity="0.33"/>
<stop offset="0.2" stop-color="white" stop-opacity="0.51"/>
<stop offset="0.27" stop-color="white" stop-opacity="0.66"/>
<stop offset="0.35" stop-color="white" stop-opacity="0.79"/>
<stop offset="0.43" stop-color="white" stop-opacity="0.88"/>
<stop offset="0.51" stop-color="white" stop-opacity="0.95"/>
<stop offset="0.6" stop-color="white" stop-opacity="0.99"/>
<stop offset="0.71" stop-color="white"/>
</linearGradient>
<linearGradient id="paint2_linear" x1="25624.6" y1="12853.3" x2="25642.7" y2="16304.3" gradientUnits="userSpaceOnUse">
<stop stop-color="white" stop-opacity="0"/>
<stop offset="0.06" stop-color="white" stop-opacity="0.13"/>
<stop offset="0.16" stop-color="white" stop-opacity="0.33"/>
<stop offset="0.26" stop-color="white" stop-opacity="0.51"/>
<stop offset="0.37" stop-color="white" stop-opacity="0.66"/>
<stop offset="0.48" stop-color="white" stop-opacity="0.79"/>
<stop offset="0.59" stop-color="white" stop-opacity="0.88"/>
<stop offset="0.71" stop-color="white" stop-opacity="0.95"/>
<stop offset="0.84" stop-color="white" stop-opacity="0.99"/>
<stop offset="1" stop-color="white"/>
</linearGradient>
<linearGradient id="paint3_linear" x1="174.811" y1="377.958" x2="201.367" y2="377.958" gradientUnits="userSpaceOnUse">
<stop stop-color="#68E1FD" stop-opacity="0"/>
<stop offset="0.02" stop-color="#66DAF6" stop-opacity="0.04"/>
<stop offset="0.18" stop-color="#58A1BC" stop-opacity="0.39"/>
<stop offset="0.35" stop-color="#4D758F" stop-opacity="0.66"/>
<stop offset="0.53" stop-color="#45566F" stop-opacity="0.85"/>
<stop offset="0.73" stop-color="#40435C" stop-opacity="0.96"/>
<stop offset="0.99" stop-color="#3F3D56"/>
</linearGradient>
<linearGradient id="paint4_linear" x1="211.789" y1="361.783" x2="181.379" y2="397.398" gradientUnits="userSpaceOnUse">
<stop offset="0.11" stop-color="#68E1FD" stop-opacity="0"/>
<stop offset="0.13" stop-color="#66DAF6" stop-opacity="0.04"/>
<stop offset="0.27" stop-color="#58A1BC" stop-opacity="0.39"/>
<stop offset="0.42" stop-color="#4D758F" stop-opacity="0.66"/>
<stop offset="0.58" stop-color="#45566F" stop-opacity="0.85"/>
<stop offset="0.76" stop-color="#40435C" stop-opacity="0.96"/>
<stop offset="0.99" stop-color="#3F3D56"/>
</linearGradient>
<linearGradient id="paint5_linear" x1="22085.8" y1="11272.8" x2="28115.4" y2="13079.7" gradientUnits="userSpaceOnUse">
<stop stop-color="#68E1FD" stop-opacity="0"/>
<stop offset="0.02" stop-color="#66DAF6" stop-opacity="0.04"/>
<stop offset="0.18" stop-color="#58A1BC" stop-opacity="0.39"/>
<stop offset="0.35" stop-color="#4D758F" stop-opacity="0.66"/>
<stop offset="0.53" stop-color="#45566F" stop-opacity="0.85"/>
<stop offset="0.73" stop-color="#40435C" stop-opacity="0.96"/>
<stop offset="0.99" stop-color="#3F3D56"/>
</linearGradient>
<linearGradient id="paint6_linear" x1="308.836" y1="340.266" x2="287.911" y2="327.783" gradientUnits="userSpaceOnUse">
<stop offset="0.36" stop-color="#00272E"/>
<stop offset="1" stop-color="#69B9EB" stop-opacity="0"/>
</linearGradient>
<linearGradient id="paint7_linear" x1="300.507" y1="309.176" x2="308.147" y2="309.176" gradientUnits="userSpaceOnUse">
<stop stop-color="#ECC4D7"/>
<stop offset="0.42" stop-color="#EFD4D1"/>
<stop offset="1" stop-color="#F2EAC9"/>
</linearGradient>
<linearGradient id="paint8_linear" x1="4136.69" y1="2067.89" x2="3766.94" y2="2515.38" gradientUnits="userSpaceOnUse">
<stop stop-color="#ECC4D7"/>
<stop offset="0.42" stop-color="#EFD4D1"/>
<stop offset="1" stop-color="#F2EAC9"/>
</linearGradient>
<linearGradient id="paint9_linear" x1="9595.81" y1="4014.38" x2="10341.8" y2="4014.38" gradientUnits="userSpaceOnUse">
<stop stop-color="#ECC4D7"/>
<stop offset="0.42" stop-color="#EFD4D1"/>
<stop offset="1" stop-color="#F2EAC9"/>
</linearGradient>
<linearGradient id="paint10_linear" x1="8162.97" y1="3294.7" x2="8970.81" y2="3294.7" gradientUnits="userSpaceOnUse">
<stop stop-color="#ECC4D7"/>
<stop offset="0.42" stop-color="#EFD4D1"/>
<stop offset="1" stop-color="#F2EAC9"/>
</linearGradient>
<linearGradient id="paint11_linear" x1="19715.4" y1="11668" x2="22709.8" y2="13104.8" gradientUnits="userSpaceOnUse">
<stop stop-color="#68E1FD" stop-opacity="0"/>
<stop offset="0.02" stop-color="#66DAF6" stop-opacity="0.04"/>
<stop offset="0.18" stop-color="#58A1BC" stop-opacity="0.39"/>
<stop offset="0.35" stop-color="#4D758F" stop-opacity="0.66"/>
<stop offset="0.53" stop-color="#45566F" stop-opacity="0.85"/>
<stop offset="0.73" stop-color="#40435C" stop-opacity="0.96"/>
<stop offset="0.99" stop-color="#3F3D56"/>
</linearGradient>
<linearGradient id="paint12_linear" x1="2562.62" y1="2277.19" x2="2603.04" y2="2277.19" gradientUnits="userSpaceOnUse">
<stop stop-color="#ECC4D7"/>
<stop offset="0.42" stop-color="#EFD4D1"/>
<stop offset="1" stop-color="#F2EAC9"/>
</linearGradient>
<linearGradient id="paint13_linear" x1="3489.44" y1="1649.14" x2="3578.32" y2="1649.14" gradientUnits="userSpaceOnUse">
<stop stop-color="#ECC4D7"/>
<stop offset="0.42" stop-color="#EFD4D1"/>
<stop offset="1" stop-color="#F2EAC9"/>
</linearGradient>
<linearGradient id="paint14_linear" x1="25165.4" y1="14603.3" x2="20937.1" y2="12722.5" gradientUnits="userSpaceOnUse">
<stop offset="0.36" stop-color="#00272E"/>
<stop offset="1" stop-color="#69B9EB" stop-opacity="0"/>
</linearGradient>
<linearGradient id="paint15_linear" x1="9066.46" y1="4224.05" x2="9912.3" y2="4224.05" gradientUnits="userSpaceOnUse">
<stop stop-color="#ECC4D7"/>
<stop offset="0.42" stop-color="#EFD4D1"/>
<stop offset="1" stop-color="#F2EAC9"/>
</linearGradient>
<linearGradient id="paint16_linear" x1="4860.82" y1="4067.8" x2="5301.98" y2="4067.8" gradientUnits="userSpaceOnUse">
<stop stop-color="#ECC4D7"/>
<stop offset="0.42" stop-color="#EFD4D1"/>
<stop offset="1" stop-color="#F2EAC9"/>
</linearGradient>
<linearGradient id="paint17_linear" x1="5457.16" y1="19945.1" x2="7797.96" y2="20089.9" gradientUnits="userSpaceOnUse">
<stop offset="0.36" stop-color="#00272E"/>
<stop offset="1" stop-color="#69B9EB" stop-opacity="0"/>
</linearGradient>
<linearGradient id="paint18_linear" x1="4620.92" y1="6895.77" x2="5501.55" y2="6895.77" gradientUnits="userSpaceOnUse">
<stop stop-color="#ECC4D7"/>
<stop offset="0.42" stop-color="#EFD4D1"/>
<stop offset="1" stop-color="#F2EAC9"/>
</linearGradient>
<linearGradient id="paint19_linear" x1="9376.94" y1="17558" x2="13509.9" y2="14569.7" gradientUnits="userSpaceOnUse">
<stop offset="0.36" stop-color="#00272E"/>
<stop offset="1" stop-color="#69B9EB" stop-opacity="0"/>
</linearGradient>
<linearGradient id="paint20_linear" x1="1913.94" y1="3423.73" x2="2049.54" y2="3423.73" gradientUnits="userSpaceOnUse">
<stop stop-color="#ECC4D7"/>
<stop offset="0.42" stop-color="#EFD4D1"/>
<stop offset="1" stop-color="#F2EAC9"/>
</linearGradient>
<linearGradient id="paint21_linear" x1="4796.65" y1="3977.9" x2="4127.33" y2="3959.88" gradientUnits="userSpaceOnUse">
<stop stop-color="#68E1FD" stop-opacity="0"/>
<stop offset="0.02" stop-color="#66DAF6" stop-opacity="0.04"/>
<stop offset="0.18" stop-color="#58A1BC" stop-opacity="0.39"/>
<stop offset="0.35" stop-color="#4D758F" stop-opacity="0.66"/>
<stop offset="0.53" stop-color="#45566F" stop-opacity="0.85"/>
<stop offset="0.73" stop-color="#40435C" stop-opacity="0.96"/>
<stop offset="0.99" stop-color="#3F3D56"/>
</linearGradient>
<linearGradient id="paint22_linear" x1="8602.46" y1="1029.14" x2="8605.98" y2="1356.02" gradientUnits="userSpaceOnUse">
<stop stop-color="#68E1FD" stop-opacity="0"/>
<stop offset="0.02" stop-color="#66DAF6" stop-opacity="0.04"/>
<stop offset="0.18" stop-color="#58A1BC" stop-opacity="0.39"/>
<stop offset="0.35" stop-color="#4D758F" stop-opacity="0.66"/>
<stop offset="0.53" stop-color="#45566F" stop-opacity="0.85"/>
<stop offset="0.73" stop-color="#40435C" stop-opacity="0.96"/>
<stop offset="0.99" stop-color="#3F3D56"/>
</linearGradient>
<linearGradient id="paint23_linear" x1="9020.91" y1="1230.32" x2="9026.53" y2="1652.94" gradientUnits="userSpaceOnUse">
<stop stop-color="#68E1FD" stop-opacity="0"/>
<stop offset="0.02" stop-color="#66DAF6" stop-opacity="0.04"/>
<stop offset="0.18" stop-color="#58A1BC" stop-opacity="0.39"/>
<stop offset="0.35" stop-color="#4D758F" stop-opacity="0.66"/>
<stop offset="0.53" stop-color="#45566F" stop-opacity="0.85"/>
<stop offset="0.73" stop-color="#40435C" stop-opacity="0.96"/>
<stop offset="0.99" stop-color="#3F3D56"/>
</linearGradient>
<clipPath id="clip0">
<rect width="439" height="504" fill="white"/>
</clipPath>
<clipPath id="clip1">
<rect width="229" height="204" fill="white" transform="translate(122 234)"/>
</clipPath>
</defs>
</svg>
