<svg width="500" height="382" viewBox="0 0 500 382" fill="none" xmlns="http://www.w3.org/2000/svg">
<path d="M500 335.85H0V336.1H500V335.85Z" fill="#E0E0E0"/>
<path d="M379.33 345.07H344.93V345.32H379.33V345.07Z" fill="#E0E0E0"/>
<path d="M419.8 344.36H400.44V344.61H419.8V344.36Z" fill="#E0E0E0"/>
<path d="M247.34 344.95H221.66V345.2H247.34V344.95Z" fill="#E0E0E0"/>
<path d="M265.89 348.5H248.35V348.75H265.89V348.5Z" fill="#E0E0E0"/>
<path d="M144.67 342.42H91.68V342.67H144.67V342.42Z" fill="#E0E0E0"/>
<path d="M237 291.25H43.91C42.3974 291.247 40.9476 290.645 39.8789 289.574C38.8102 288.504 38.21 287.053 38.21 285.54V14.11C38.2232 12.606 38.8292 11.168 39.8965 10.1082C40.9637 9.04847 42.406 8.45259 43.91 8.45001H237C238.514 8.45001 239.967 9.0516 241.038 10.1224C242.108 11.1933 242.71 12.6456 242.71 14.16V285.54C242.71 287.054 242.108 288.507 241.038 289.578C239.967 290.648 238.514 291.25 237 291.25V291.25ZM43.91 8.65001C42.4637 8.65266 41.0775 9.22908 40.0557 10.2527C39.0339 11.2764 38.46 12.6637 38.46 14.11V285.54C38.46 286.986 39.0339 288.374 40.0557 289.397C41.0775 290.421 42.4637 290.997 43.91 291H237C238.447 290.997 239.835 290.421 240.858 289.398C241.881 288.375 242.457 286.987 242.46 285.54V14.11C242.457 12.6627 241.881 11.2755 240.858 10.2521C239.835 9.22875 238.447 8.65266 237 8.65001H43.91Z" fill="#E0E0E0"/>
<path d="M453.31 291.25H260.21C258.696 291.247 257.246 290.645 256.175 289.575C255.105 288.504 254.503 287.054 254.5 285.54V14.11C254.516 12.6051 255.124 11.1671 256.193 10.1076C257.262 9.04812 258.705 8.45256 260.21 8.45001H453.31C454.812 8.45522 456.252 9.05226 457.317 10.1117C458.382 11.1712 458.987 12.6078 459 14.11V285.54C459 287.051 458.401 288.5 457.335 289.571C456.268 290.641 454.821 291.245 453.31 291.25V291.25ZM260.21 8.65001C258.763 8.65266 257.375 9.22875 256.352 10.2521C255.329 11.2755 254.753 12.6627 254.75 14.11V285.54C254.753 286.987 255.329 288.375 256.352 289.398C257.375 290.421 258.763 290.997 260.21 291H453.31C454.757 290.997 456.145 290.421 457.168 289.398C458.191 288.375 458.767 286.987 458.77 285.54V14.11C458.767 12.6627 458.191 11.2755 457.168 10.2521C456.145 9.22875 454.757 8.65266 453.31 8.65001H260.21Z" fill="#E0E0E0"/>
<path d="M434.03 32.72H283.33V162.28H434.03V32.72Z" fill="#E0E0E0"/>
<path d="M437.38 32.72H286.68V162.28H437.38V32.72Z" fill="#F0F0F0"/>
<path d="M431.37 156.2V38.8L292.69 38.8V156.2H431.37Z" fill="#FAFAFA"/>
<path d="M387.05 156.2V38.8H377.99V156.2H387.05Z" fill="#E0E0E0"/>
<path d="M339.39 156.2V38.8H330.33V156.2H339.39Z" fill="#E0E0E0"/>
<path d="M390.24 160.05V34.27H381.18V160.05H390.24Z" fill="#F0F0F0"/>
<path d="M342.57 160.06V34.28H333.51V160.06H342.57Z" fill="#F0F0F0"/>
<path d="M431.37 156.19V38.79H428.84V156.19H431.37Z" fill="#E0E0E0"/>
<path d="M177.34 135.04C177.34 135.04 159 103.45 184.45 78.26C184.45 78.26 191.09 82.59 190.99 88.41C190.89 94.23 183.87 95.7 185.38 100.56C186.89 105.42 193.5 110.17 189.16 114.19C184.82 118.21 189.86 121.77 189.57 126.69C189.28 131.61 177.34 135.04 177.34 135.04Z" fill="#E0E0E0"/>
<path d="M180.22 140.21C180.22 140.21 187.66 104.43 155.58 88.57C155.58 88.57 150.64 94.77 152.58 100.26C154.52 105.75 161.63 104.93 161.73 110.02C161.83 115.11 157.06 121.71 162.44 124.15C167.82 126.59 164.17 131.57 166 136.15C167.83 140.73 180.22 140.21 180.22 140.21Z" fill="#E6E6E6"/>
<path d="M163.89 131.12C163.89 131.12 164.21 162.01 176.56 162.01C188.91 162.01 189.22 131.12 189.22 131.12H163.89Z" fill="#F0F0F0"/>
<path d="M89.69 150.39C89.69 150.39 90.38 162.01 116.75 162.01C143.12 162.01 143.82 150.39 143.82 150.39H89.69Z" fill="#E6E6E6"/>
<path d="M367.7 220.45H353.78C352.046 220.45 350.64 221.856 350.64 223.59V246.61C350.64 248.344 352.046 249.75 353.78 249.75H367.7C369.434 249.75 370.84 248.344 370.84 246.61V223.59C370.84 221.856 369.434 220.45 367.7 220.45Z" fill="#F0F0F0"/>
<path d="M404.62 230.03H395.25C394.085 230.03 393.14 230.975 393.14 232.14V247.64C393.14 248.805 394.085 249.75 395.25 249.75H404.62C405.785 249.75 406.73 248.805 406.73 247.64V232.14C406.73 230.975 405.785 230.03 404.62 230.03Z" fill="#E6E6E6"/>
<path d="M406.02 228.12H393.85C393.458 228.12 393.14 228.438 393.14 228.83V229.63C393.14 230.022 393.458 230.34 393.85 230.34H406.02C406.412 230.34 406.73 230.022 406.73 229.63V228.83C406.73 228.438 406.412 228.12 406.02 228.12Z" fill="#F0F0F0"/>
<path d="M318.42 233.45C318.42 233.45 318.92 249.75 338.01 249.75C357.1 249.75 357.61 233.45 357.61 233.45H318.42Z" fill="#E6E6E6"/>
<path d="M270.94 211.92H299.83V206.22H270.94V211.92Z" fill="#E0E0E0"/>
<path d="M443.46 206.23H299.83V211.93H443.46V206.23Z" fill="#F0F0F0"/>
<path d="M270.94 255.45H299.83V249.75H270.94V255.45Z" fill="#E0E0E0"/>
<path d="M443.46 249.75H299.83V255.45H443.46V249.75Z" fill="#F0F0F0"/>
<path d="M281.35 211.92H276.02V335.84H281.35V211.92Z" fill="#E0E0E0"/>
<path d="M305.16 211.92H299.83V335.84H305.16V211.92Z" fill="#F0F0F0"/>
<path d="M424.98 211.92H419.65V335.84H424.98V211.92Z" fill="#E0E0E0"/>
<path d="M443.46 211.92H438.13V335.84H443.46V211.92Z" fill="#F0F0F0"/>
<path d="M89.69 169.26H62.37V328.35H89.69V169.26Z" fill="#E6E6E6"/>
<path d="M202.34 328.34H67.62V335.85H202.34V328.34Z" fill="#E6E6E6"/>
<path d="M89.69 328.34H207.58L207.58 169.25L89.69 169.25L89.69 328.34Z" fill="#F0F0F0"/>
<path d="M100.43 268.23H196.84V229.37H100.43V268.23Z" fill="#E6E6E6"/>
<path d="M100.43 314.17H196.84V275.31H100.43V314.17Z" fill="#E6E6E6"/>
<path d="M159.46 233.63H137.81C137.105 233.627 136.43 233.346 135.932 232.848C135.434 232.35 135.153 231.675 135.15 230.97V230.97C135.15 230.264 135.43 229.586 135.928 229.086C136.427 228.585 137.104 228.303 137.81 228.3H159.46C160.166 228.303 160.843 228.585 161.342 229.086C161.84 229.586 162.12 230.264 162.12 230.97V230.97C162.117 231.675 161.836 232.35 161.338 232.848C160.84 233.346 160.165 233.627 159.46 233.63Z" fill="#F0F0F0"/>
<path d="M100.43 222.28H196.84V183.42H100.43V222.28Z" fill="#E6E6E6"/>
<path d="M159.46 187.69H137.81C137.104 187.687 136.427 187.405 135.928 186.904C135.43 186.404 135.15 185.726 135.15 185.02C135.153 184.315 135.434 183.64 135.932 183.142C136.43 182.644 137.105 182.363 137.81 182.36H159.46C160.165 182.363 160.84 182.644 161.338 183.142C161.836 183.64 162.117 184.315 162.12 185.02V185.02C162.12 185.726 161.84 186.404 161.342 186.904C160.843 187.405 160.166 187.687 159.46 187.69V187.69Z" fill="#F0F0F0"/>
<path d="M159.46 279.57H137.81C137.105 279.567 136.43 279.286 135.932 278.788C135.434 278.29 135.153 277.615 135.15 276.91V276.91C135.15 276.204 135.43 275.526 135.928 275.026C136.427 274.525 137.104 274.243 137.81 274.24H159.46C160.166 274.243 160.843 274.525 161.342 275.026C161.84 275.526 162.12 276.204 162.12 276.91V276.91C162.117 277.615 161.836 278.29 161.338 278.788C160.84 279.286 160.165 279.567 159.46 279.57Z" fill="#F0F0F0"/>
<path d="M211.22 162.01H89.69V169.26H211.22V162.01Z" fill="#E6E6E6"/>
<path d="M58.55 169.25H89.69V162H58.55V169.25Z" fill="#E0E0E0"/>
<path d="M120.14 38.8H75.94V87.34H120.14V38.8Z" fill="#E6E6E6"/>
<path d="M124.93 38.8H79.27V87.34H124.93V38.8Z" fill="#F0F0F0"/>
<path d="M121.1 83.51V42.62H83.09V83.51H121.1Z" fill="#FAFAFA"/>
<path d="M111.89 73.6V52.53H92.31V73.6H111.89Z" fill="#F0F0F0"/>
<path d="M166.74 24.47H133.22V60.48H166.74V24.47Z" fill="#E6E6E6"/>
<path d="M170.3 24.47H136.43V60.48H170.3V24.47Z" fill="#F0F0F0"/>
<path d="M167.46 57.64V27.31H139.27V57.64H167.46Z" fill="#FAFAFA"/>
<path d="M153.36 34.8L145.65 48.16H161.07L153.36 34.8Z" fill="#F0F0F0"/>
<path d="M250 381.01C357.082 381.01 443.89 375.942 443.89 369.69C443.89 363.438 357.082 358.37 250 358.37C142.917 358.37 56.11 363.438 56.11 369.69C56.11 375.942 142.917 381.01 250 381.01Z" fill="#F5F5F5"/>
<path d="M419.8 99.27H321.7C316.525 99.27 312.33 103.465 312.33 108.64V135.32C312.33 140.495 316.525 144.69 321.7 144.69H419.8C424.975 144.69 429.17 140.495 429.17 135.32V108.64C429.17 103.465 424.975 99.27 419.8 99.27Z" fill="#407BFF"/>
<path d="M400.34 106.93H323.71C322.804 106.93 322.07 107.664 322.07 108.57V110.37C322.07 111.276 322.804 112.01 323.71 112.01H400.34C401.246 112.01 401.98 111.276 401.98 110.37V108.57C401.98 107.664 401.246 106.93 400.34 106.93Z" fill="#407BFF"/>
<path d="M376.07 119.17H323.71C322.804 119.17 322.07 119.904 322.07 120.81V122.61C322.07 123.516 322.804 124.25 323.71 124.25H376.07C376.976 124.25 377.71 123.516 377.71 122.61V120.81C377.71 119.904 376.976 119.17 376.07 119.17Z" fill="#407BFF"/>
<path d="M362.03 131.41H323.71C322.804 131.41 322.07 132.144 322.07 133.05V134.85C322.07 135.756 322.804 136.49 323.71 136.49H362.03C362.936 136.49 363.67 135.756 363.67 134.85V133.05C363.67 132.144 362.936 131.41 362.03 131.41Z" fill="#407BFF"/>
<path d="M409.52 131.41H371.2C370.294 131.41 369.56 132.144 369.56 133.05V134.85C369.56 135.756 370.294 136.49 371.2 136.49H409.52C410.426 136.49 411.16 135.756 411.16 134.85V133.05C411.16 132.144 410.426 131.41 409.52 131.41Z" fill="#407BFF"/>
<g opacity="0.5">
<path opacity="0.5" d="M400.34 106.93H323.71C322.804 106.93 322.07 107.664 322.07 108.57V110.37C322.07 111.276 322.804 112.01 323.71 112.01H400.34C401.246 112.01 401.98 111.276 401.98 110.37V108.57C401.98 107.664 401.246 106.93 400.34 106.93Z" fill="white"/>
<path opacity="0.5" d="M376.07 119.17H323.71C322.804 119.17 322.07 119.904 322.07 120.81V122.61C322.07 123.516 322.804 124.25 323.71 124.25H376.07C376.976 124.25 377.71 123.516 377.71 122.61V120.81C377.71 119.904 376.976 119.17 376.07 119.17Z" fill="white"/>
<path opacity="0.5" d="M362.03 131.41H323.71C322.804 131.41 322.07 132.144 322.07 133.05V134.85C322.07 135.756 322.804 136.49 323.71 136.49H362.03C362.936 136.49 363.67 135.756 363.67 134.85V133.05C363.67 132.144 362.936 131.41 362.03 131.41Z" fill="white"/>
<path opacity="0.5" d="M409.52 131.41H371.2C370.294 131.41 369.56 132.144 369.56 133.05V134.85C369.56 135.756 370.294 136.49 371.2 136.49H409.52C410.426 136.49 411.16 135.756 411.16 134.85V133.05C411.16 132.144 410.426 131.41 409.52 131.41Z" fill="white"/>
</g>
<path d="M341.22 88.68H229.87C222.282 88.68 216.13 94.8316 216.13 102.42V141.54C216.13 149.128 222.282 155.28 229.87 155.28H341.22C348.808 155.28 354.96 149.128 354.96 141.54V102.42C354.96 94.8316 348.808 88.68 341.22 88.68Z" fill="#407BFF"/>
<path d="M345.16 99.91H232.82C231.489 99.91 230.41 100.989 230.41 102.32V104.95C230.41 106.281 231.489 107.36 232.82 107.36H345.16C346.491 107.36 347.57 106.281 347.57 104.95V102.32C347.57 100.989 346.491 99.91 345.16 99.91Z" fill="#407BFF"/>
<path d="M309.57 117.86H232.82C231.489 117.86 230.41 118.939 230.41 120.27V122.9C230.41 124.231 231.489 125.31 232.82 125.31H309.57C310.901 125.31 311.98 124.231 311.98 122.9V120.27C311.98 118.939 310.901 117.86 309.57 117.86Z" fill="#407BFF"/>
<path d="M288.99 135.81H232.82C231.489 135.81 230.41 136.889 230.41 138.22V140.85C230.41 142.181 231.489 143.26 232.82 143.26H288.99C290.321 143.26 291.4 142.181 291.4 140.85V138.22C291.4 136.889 290.321 135.81 288.99 135.81Z" fill="#407BFF"/>
<path d="M349.25 135.81H302.45C301.119 135.81 300.04 136.889 300.04 138.22V140.85C300.04 142.181 301.119 143.26 302.45 143.26H349.25C350.581 143.26 351.66 142.181 351.66 140.85V138.22C351.66 136.889 350.581 135.81 349.25 135.81Z" fill="#407BFF"/>
<g opacity="0.5">
<path opacity="0.5" d="M345.16 99.91H232.82C231.489 99.91 230.41 100.989 230.41 102.32V104.95C230.41 106.281 231.489 107.36 232.82 107.36H345.16C346.491 107.36 347.57 106.281 347.57 104.95V102.32C347.57 100.989 346.491 99.91 345.16 99.91Z" fill="white"/>
<path opacity="0.5" d="M309.57 117.86H232.82C231.489 117.86 230.41 118.939 230.41 120.27V122.9C230.41 124.231 231.489 125.31 232.82 125.31H309.57C310.901 125.31 311.98 124.231 311.98 122.9V120.27C311.98 118.939 310.901 117.86 309.57 117.86Z" fill="white"/>
<path opacity="0.5" d="M288.99 135.81H232.82C231.489 135.81 230.41 136.889 230.41 138.22V140.85C230.41 142.181 231.489 143.26 232.82 143.26H288.99C290.321 143.26 291.4 142.181 291.4 140.85V138.22C291.4 136.889 290.321 135.81 288.99 135.81Z" fill="white"/>
<path opacity="0.5" d="M349.25 135.81H302.45C301.119 135.81 300.04 136.889 300.04 138.22V140.85C300.04 142.181 301.119 143.26 302.45 143.26H349.25C350.581 143.26 351.66 142.181 351.66 140.85V138.22C351.66 136.889 350.581 135.81 349.25 135.81Z" fill="white"/>
</g>
<path d="M271.99 167.35H218.36C214.814 167.35 211.94 170.224 211.94 173.77V254.11C211.94 257.656 214.814 260.53 218.36 260.53H271.99C275.536 260.53 278.41 257.656 278.41 254.11V173.77C278.41 170.224 275.536 167.35 271.99 167.35Z" fill="#407BFF"/>
<path opacity="0.4" d="M271.99 167.35H218.36C214.814 167.35 211.94 170.224 211.94 173.77V254.11C211.94 257.656 214.814 260.53 218.36 260.53H271.99C275.536 260.53 278.41 257.656 278.41 254.11V173.77C278.41 170.224 275.536 167.35 271.99 167.35Z" fill="black"/>
<path d="M269.53 177.07H220.81C220.158 177.07 219.63 177.598 219.63 178.25V180.02C219.63 180.672 220.158 181.2 220.81 181.2H269.53C270.182 181.2 270.71 180.672 270.71 180.02V178.25C270.71 177.598 270.182 177.07 269.53 177.07Z" fill="#FAFAFA"/>
<path d="M254.02 187.01H220.81C220.158 187.01 219.63 187.538 219.63 188.19V189.96C219.63 190.612 220.158 191.14 220.81 191.14H254.02C254.672 191.14 255.2 190.612 255.2 189.96V188.19C255.2 187.538 254.672 187.01 254.02 187.01Z" fill="#FAFAFA"/>
<path d="M269.53 196.96H220.81C220.158 196.96 219.63 197.488 219.63 198.14V199.91C219.63 200.562 220.158 201.09 220.81 201.09H269.53C270.182 201.09 270.71 200.562 270.71 199.91V198.14C270.71 197.488 270.182 196.96 269.53 196.96Z" fill="#FAFAFA"/>
<path d="M238.92 206.9H220.81C220.158 206.9 219.63 207.428 219.63 208.08V209.85C219.63 210.502 220.158 211.03 220.81 211.03H238.92C239.572 211.03 240.1 210.502 240.1 209.85V208.08C240.1 207.428 239.572 206.9 238.92 206.9Z" fill="#FAFAFA"/>
<path d="M264.26 206.9H246.15C245.498 206.9 244.97 207.428 244.97 208.08V209.85C244.97 210.502 245.498 211.03 246.15 211.03H264.26C264.912 211.03 265.44 210.502 265.44 209.85V208.08C265.44 207.428 264.912 206.9 264.26 206.9Z" fill="#FAFAFA"/>
<path d="M269.53 216.85H220.81C220.158 216.85 219.63 217.378 219.63 218.03V219.8C219.63 220.452 220.158 220.98 220.81 220.98H269.53C270.182 220.98 270.71 220.452 270.71 219.8V218.03C270.71 217.378 270.182 216.85 269.53 216.85Z" fill="#FAFAFA"/>
<path d="M269.53 226.79H220.81C220.158 226.79 219.63 227.318 219.63 227.97V229.74C219.63 230.392 220.158 230.92 220.81 230.92H269.53C270.182 230.92 270.71 230.392 270.71 229.74V227.97C270.71 227.318 270.182 226.79 269.53 226.79Z" fill="#FAFAFA"/>
<path d="M260.89 236.74H220.81C220.158 236.74 219.63 237.268 219.63 237.92V239.69C219.63 240.342 220.158 240.87 220.81 240.87H260.89C261.542 240.87 262.07 240.342 262.07 239.69V237.92C262.07 237.268 261.542 236.74 260.89 236.74Z" fill="#FAFAFA"/>
<path d="M239.51 246.68H220.81C220.158 246.68 219.63 247.208 219.63 247.86V249.63C219.63 250.282 220.158 250.81 220.81 250.81H239.51C240.162 250.81 240.69 250.282 240.69 249.63V247.86C240.69 247.208 240.162 246.68 239.51 246.68Z" fill="#FAFAFA"/>
<path d="M286.5 166.78H212.11L245 192.95L295.43 211.95V175.69C295.425 173.325 294.482 171.059 292.807 169.388C291.133 167.718 288.865 166.78 286.5 166.78Z" fill="#407BFF"/>
<path opacity="0.4" d="M286.5 166.78H212.11L245 192.95L295.43 211.95V175.69C295.425 173.325 294.482 171.059 292.807 169.388C291.133 167.718 288.865 166.78 286.5 166.78Z" fill="black"/>
<path d="M283.25 180.26H228.82C228.003 180.26 227.34 180.923 227.34 181.74V184.5C227.34 185.317 228.003 185.98 228.82 185.98H283.25C284.067 185.98 284.73 185.317 284.73 184.5V181.74C284.73 180.923 284.067 180.26 283.25 180.26Z" fill="#FAFAFA"/>
<path d="M415.15 237.62V185.3C415.15 181.29 411.9 178.04 407.89 178.04H317.04C313.03 178.04 309.78 181.29 309.78 185.3V237.62C309.78 241.63 313.03 244.88 317.04 244.88H407.89C411.9 244.88 415.15 241.63 415.15 237.62Z" fill="#407BFF"/>
<path d="M431.74 221.04V168.72C431.74 164.71 428.49 161.46 424.48 161.46H333.63C329.62 161.46 326.37 164.71 326.37 168.72V221.04C326.37 225.05 329.62 228.3 333.63 228.3H424.48C428.49 228.3 431.74 225.05 431.74 221.04Z" fill="#407BFF"/>
<path opacity="0.5" d="M431.74 221.04V168.72C431.74 164.71 428.49 161.46 424.48 161.46H333.63C329.62 161.46 326.37 164.71 326.37 168.72V221.04C326.37 225.05 329.62 228.3 333.63 228.3H424.48C428.49 228.3 431.74 225.05 431.74 221.04Z" fill="white"/>
<path d="M422.52 203.11V170.9C422.52 169.116 421.074 167.67 419.29 167.67H389.6C387.816 167.67 386.37 169.116 386.37 170.9V203.11C386.37 204.894 387.816 206.34 389.6 206.34H419.29C421.074 206.34 422.52 204.894 422.52 203.11Z" fill="#407BFF"/>
<path opacity="0.7" d="M422.52 203.11V170.9C422.52 169.116 421.074 167.67 419.29 167.67H389.6C387.816 167.67 386.37 169.116 386.37 170.9V203.11C386.37 204.894 387.816 206.34 389.6 206.34H419.29C421.074 206.34 422.52 204.894 422.52 203.11Z" fill="white"/>
<path d="M380.71 218.69V194.01C380.71 192.64 379.6 191.53 378.23 191.53H355.48C354.11 191.53 353 192.64 353 194.01V218.69C353 220.06 354.11 221.17 355.48 221.17H378.23C379.6 221.17 380.71 220.06 380.71 218.69Z" fill="#407BFF"/>
<path opacity="0.3" d="M380.71 218.69V194.01C380.71 192.64 379.6 191.53 378.23 191.53H355.48C354.11 191.53 353 192.64 353 194.01V218.69C353 220.06 354.11 221.17 355.48 221.17H378.23C379.6 221.17 380.71 220.06 380.71 218.69Z" fill="white"/>
<path d="M366.85 62.21V48.88C366.85 44.8041 363.546 41.5 359.47 41.5L115.34 41.5C111.264 41.5 107.96 44.8041 107.96 48.88V62.21C107.96 66.2859 111.264 69.59 115.34 69.59L359.47 69.59C363.546 69.59 366.85 66.2859 366.85 62.21Z" fill="#407BFF"/>
<path opacity="0.5" d="M366.85 62.21V48.88C366.85 44.8041 363.546 41.5 359.47 41.5L115.34 41.5C111.264 41.5 107.96 44.8041 107.96 48.88V62.21C107.96 66.2859 111.264 69.59 115.34 69.59L359.47 69.59C363.546 69.59 366.85 66.2859 366.85 62.21Z" fill="white"/>
<path d="M320.66 74.29V64.62H250.41V74.29H320.66Z" fill="#407BFF"/>
<path opacity="0.5" d="M320.66 74.29V64.62H250.41V74.29H320.66Z" fill="white"/>
<path d="M392.04 20.71V7.38C392.04 3.30414 388.736 0 384.66 0L140.53 0C136.454 0 133.15 3.30414 133.15 7.38V20.71C133.15 24.7859 136.454 28.09 140.53 28.09L384.66 28.09C388.736 28.09 392.04 24.7859 392.04 20.71Z" fill="#407BFF"/>
<path d="M130.36 147.71C129.48 149.71 128.51 151.87 127.66 153.98C126.81 156.09 125.93 158.26 125.16 160.42C123.58 164.631 122.313 168.953 121.37 173.35L121.08 174.95L120.98 175.55C120.98 175.72 120.98 175.94 120.92 176.14C120.882 177.114 120.902 178.089 120.98 179.06C121.17 181.17 121.51 183.43 121.98 185.69C122.82 190.22 123.89 194.89 124.98 199.49L119.85 201.49C117.459 197.131 115.422 192.586 113.76 187.9C112.884 185.461 112.176 182.965 111.64 180.43C111.34 179.027 111.152 177.603 111.08 176.17C111.08 175.77 111.08 175.39 111.08 174.96C111.08 174.53 111.08 174.05 111.15 173.77L111.35 171.77C111.649 169.194 112.106 166.639 112.72 164.12C113.28 161.62 114 159.19 114.72 156.79C115.44 154.39 116.34 152.03 117.29 149.71C117.76 148.55 118.29 147.4 118.75 146.25C119.21 145.1 119.75 144 120.39 142.77L130.36 147.71Z" fill="#E4897B"/>
<path d="M124.71 198.14L128.61 201.95L120.1 205.95C120.1 205.95 118.04 202.34 119.47 199.08L124.71 198.14Z" fill="#E4897B"/>
<path d="M131.76 207.62L124.57 210.56L120.11 205.91L128.61 201.95L131.76 207.62Z" fill="#E4897B"/>
<path opacity="0.4" d="M277.41 203.52C263.261 201.931 249.901 196.183 239.018 187.003C228.135 177.822 220.219 165.621 216.269 151.941C212.32 138.262 212.515 123.719 216.829 110.151C221.144 96.5822 229.385 84.5976 240.51 75.7119C251.635 66.8262 265.144 61.4384 279.331 60.2296C293.517 59.0207 307.744 62.0452 320.212 68.9206C332.68 75.7959 342.829 86.2135 349.377 98.8564C355.925 111.499 358.578 125.8 357 139.95C355.952 149.351 353.061 158.454 348.493 166.738C343.925 175.021 337.769 182.324 330.378 188.227C322.986 194.131 314.504 198.52 305.416 201.144C296.327 203.768 286.811 204.575 277.41 203.52V203.52Z" fill="#FAFAFA"/>
<path opacity="0.4" d="M329.79 75.24L220.29 162.73C219.83 161.73 219.38 160.73 218.96 159.73C216.215 153.2 214.459 146.298 213.75 139.25V139.25L308.33 63.68C316.095 66.2702 323.355 70.1809 329.79 75.24V75.24Z" fill="#FAFAFA"/>
<path opacity="0.4" d="M355.06 113.57L252.11 195.82C242.33 190.722 233.854 183.44 227.34 174.54L339.75 84.72C346.996 93.0369 352.234 102.908 355.06 113.57Z" fill="#FAFAFA"/>
<path d="M204.39 104.45L203.44 104.13C205.085 99.275 207.153 94.5737 209.62 90.08L210.49 90.56C208.056 95.0034 206.015 99.6511 204.39 104.45ZM216.53 81.11L215.72 80.52C223.938 69.4079 234.694 60.4214 247.09 54.31L247.54 55.21C235.284 61.2584 224.652 70.1488 216.53 81.14V81.11ZM326.12 56.58C322.852 54.8273 319.471 53.2939 316 51.99L316.36 51.05C319.865 52.3845 323.28 53.9478 326.58 55.73L326.12 56.58Z" fill="#407BFF"/>
<path opacity="0.3" d="M204.39 104.45L203.44 104.13C205.085 99.275 207.153 94.5737 209.62 90.08L210.49 90.56C208.056 95.0034 206.015 99.6511 204.39 104.45ZM216.53 81.11L215.72 80.52C223.938 69.4079 234.694 60.4214 247.09 54.31L247.54 55.21C235.284 61.2584 224.652 70.1488 216.53 81.14V81.11ZM326.12 56.58C322.852 54.8273 319.471 53.2939 316 51.99L316.36 51.05C319.865 52.3845 323.28 53.9478 326.58 55.73L326.12 56.58Z" fill="black"/>
<path d="M359.87 95.19C350.61 75.9853 334.315 61.0804 314.363 53.5651C294.411 46.0498 272.333 46.5006 252.704 54.8239C233.075 63.1473 217.402 78.7049 208.934 98.2715C200.466 117.838 199.852 139.913 207.22 159.92C200.54 162.26 193.94 164.77 187.38 167.36C177.92 171.113 168.547 175.033 159.26 179.12C149.98 183.23 140.74 187.42 131.59 191.8C127 193.95 122.47 196.22 117.9 198.42C115.523 199.442 113.369 200.919 111.56 202.77C110.581 203.795 109.719 204.925 108.99 206.14C108.1 207.577 107.426 209.137 106.99 210.77C106.238 213.713 106.563 216.828 107.907 219.551C109.252 222.275 111.526 224.428 114.32 225.62C115.871 226.271 117.508 226.695 119.18 226.88C120.592 227.04 122.018 227.04 123.43 226.88C125.996 226.569 128.476 225.757 130.73 224.49C135.26 222.2 139.82 219.99 144.32 217.64C153.32 213.05 162.32 208.26 171.21 203.4C180.1 198.54 189 193.45 197.68 188.23C203.68 184.6 209.74 180.89 215.68 177.01C227.086 195.017 244.983 207.945 265.662 213.116C286.34 218.286 308.215 215.304 326.755 204.785C345.294 194.266 359.076 177.019 365.244 156.616C371.413 136.212 369.496 114.218 359.89 95.19H359.87ZM314.41 190.72C302.789 196.456 289.727 198.618 276.878 196.931C264.028 195.245 251.967 189.786 242.219 181.245C232.472 172.704 225.476 161.464 222.116 148.948C218.756 136.431 219.183 123.199 223.343 110.925C227.503 98.6504 235.209 87.8853 245.487 79.9905C255.764 72.0957 268.152 67.4258 281.084 66.5712C294.016 65.7165 306.911 68.7156 318.138 75.1892C329.365 81.6627 338.421 91.32 344.16 102.94C347.971 110.657 350.225 119.049 350.793 127.637C351.36 136.225 350.231 144.841 347.468 152.992C344.705 161.144 340.364 168.671 334.692 175.145C329.02 181.618 322.128 186.91 314.41 190.72Z" fill="#407BFF"/>
<path opacity="0.3" d="M359.87 95.19C350.61 75.9853 334.315 61.0804 314.363 53.5651C294.411 46.0498 272.333 46.5006 252.704 54.8239C233.075 63.1473 217.402 78.7049 208.934 98.2715C200.466 117.838 199.852 139.913 207.22 159.92C200.54 162.26 193.94 164.77 187.38 167.36C177.92 171.113 168.547 175.033 159.26 179.12C149.98 183.23 140.74 187.42 131.59 191.8C127 193.95 122.47 196.22 117.9 198.42C115.523 199.442 113.369 200.919 111.56 202.77C110.581 203.795 109.719 204.925 108.99 206.14C108.1 207.577 107.426 209.137 106.99 210.77C106.238 213.713 106.563 216.828 107.907 219.551C109.252 222.275 111.526 224.428 114.32 225.62C115.871 226.271 117.508 226.695 119.18 226.88C120.592 227.04 122.018 227.04 123.43 226.88C125.996 226.569 128.476 225.757 130.73 224.49C135.26 222.2 139.82 219.99 144.32 217.64C153.32 213.05 162.32 208.26 171.21 203.4C180.1 198.54 189 193.45 197.68 188.23C203.68 184.6 209.74 180.89 215.68 177.01C227.086 195.017 244.983 207.945 265.662 213.116C286.34 218.286 308.215 215.304 326.755 204.785C345.294 194.266 359.076 177.019 365.244 156.616C371.413 136.212 369.496 114.218 359.89 95.19H359.87ZM314.41 190.72C302.789 196.456 289.727 198.618 276.878 196.931C264.028 195.245 251.967 189.786 242.219 181.245C232.472 172.704 225.476 161.464 222.116 148.948C218.756 136.431 219.183 123.199 223.343 110.925C227.503 98.6504 235.209 87.8853 245.487 79.9905C255.764 72.0957 268.152 67.4258 281.084 66.5712C294.016 65.7165 306.911 68.7156 318.138 75.1892C329.365 81.6627 338.421 91.32 344.16 102.94C347.971 110.657 350.225 119.049 350.793 127.637C351.36 136.225 350.231 144.841 347.468 152.992C344.705 161.144 340.364 168.671 334.692 175.145C329.02 181.618 322.128 186.91 314.41 190.72Z" fill="black"/>
<path d="M158 112C158 112.59 158.31 113.07 158.7 113.07C159.09 113.07 159.4 112.59 159.4 112C159.4 111.41 159.09 110.93 158.7 110.93C158.31 110.93 158 111.45 158 112Z" fill="#263238"/>
<path d="M158.28 113.07C158.988 114.881 159.94 116.587 161.11 118.14C160.705 118.429 160.243 118.627 159.754 118.718C159.265 118.81 158.762 118.793 158.28 118.67V113.07Z" fill="#DE5753"/>
<path d="M155.93 108.71C155.874 108.71 155.819 108.697 155.769 108.673C155.719 108.649 155.675 108.614 155.64 108.57C155.588 108.494 155.567 108.4 155.582 108.309C155.597 108.218 155.646 108.136 155.72 108.08C156.16 107.746 156.675 107.523 157.22 107.431C157.765 107.339 158.324 107.38 158.85 107.55C158.897 107.563 158.941 107.585 158.979 107.616C159.017 107.647 159.048 107.686 159.07 107.73C159.092 107.773 159.105 107.821 159.108 107.87C159.11 107.919 159.102 107.968 159.085 108.013C159.067 108.059 159.04 108.101 159.006 108.135C158.971 108.17 158.929 108.197 158.884 108.214C158.838 108.232 158.789 108.24 158.74 108.237C158.692 108.235 158.644 108.222 158.6 108.2C158.182 108.072 157.74 108.046 157.31 108.124C156.88 108.203 156.476 108.383 156.13 108.65C156.071 108.689 156.001 108.71 155.93 108.71V108.71Z" fill="#263238"/>
<path d="M137.8 116.45C138.8 121.82 139.9 131.67 136.14 135.26C136.14 135.26 137.61 140.71 147.6 140.71C158.6 140.71 152.84 135.26 152.84 135.26C146.84 133.82 147.01 129.38 148.05 125.2L137.8 116.45Z" fill="#E4897B"/>
<path d="M131.65 138.09C132.84 136.24 130.84 131.75 130.84 131.75C130.84 131.75 148.52 127.3 155.75 134.13C157.25 135.54 155.59 137.62 155.59 137.62L131.65 138.09Z" fill="#407BFF"/>
<path opacity="0.1" d="M131.65 138.09C132.84 136.24 130.84 131.75 130.84 131.75C130.84 131.75 148.52 127.3 155.75 134.13C157.25 135.54 155.59 137.62 155.59 137.62L131.65 138.09Z" fill="black"/>
<path d="M102.4 342.12C101.47 342.12 99.98 340.57 99.54 339.99C99.5211 339.962 99.511 339.929 99.511 339.895C99.511 339.861 99.5211 339.828 99.54 339.8C99.5561 339.772 99.5795 339.749 99.6077 339.733C99.6358 339.717 99.6677 339.709 99.7 339.71C99.81 339.71 102.26 339.93 102.93 340.8C103.003 340.892 103.055 340.998 103.083 341.112C103.11 341.226 103.113 341.345 103.09 341.46C103.081 341.609 103.027 341.751 102.933 341.868C102.84 341.984 102.713 342.069 102.57 342.11L102.4 342.12ZM100.08 340.12C100.81 340.96 101.98 341.91 102.48 341.79C102.48 341.79 102.68 341.74 102.74 341.42C102.753 341.353 102.751 341.284 102.734 341.218C102.716 341.153 102.684 341.092 102.64 341.04C101.899 340.479 101.008 340.152 100.08 340.1V340.12Z" fill="#407BFF"/>
<path d="M100.19 340.1C100.01 340.118 99.8296 340.118 99.65 340.1C99.6184 340.098 99.5882 340.086 99.5633 340.066C99.5384 340.047 99.5198 340.02 99.51 339.99C99.4959 339.962 99.4886 339.931 99.4886 339.9C99.4886 339.869 99.4959 339.838 99.51 339.81C99.58 339.75 101.05 338.22 102.16 338.22C102.293 338.217 102.425 338.242 102.547 338.294C102.67 338.346 102.78 338.423 102.87 338.52C102.97 338.603 103.038 338.718 103.063 338.845C103.089 338.973 103.07 339.105 103.01 339.22C102.72 339.78 101.19 340.1 100.19 340.1ZM100.06 339.75C101.06 339.75 102.51 339.44 102.75 339C102.75 339 102.82 338.87 102.66 338.71C102.602 338.647 102.53 338.597 102.451 338.564C102.372 338.531 102.286 338.516 102.2 338.52V338.52C101.38 338.708 100.635 339.136 100.06 339.75V339.75Z" fill="#407BFF"/>
<path d="M168.39 364.82C167.632 364.815 166.876 364.745 166.13 364.61C166.093 364.603 166.06 364.583 166.036 364.554C166.012 364.524 165.999 364.488 166 364.45C165.994 364.415 165.999 364.38 166.013 364.348C166.027 364.316 166.051 364.289 166.08 364.27C166.19 364.21 168.75 362.74 169.98 363.08C170.094 363.106 170.202 363.155 170.296 363.223C170.391 363.292 170.47 363.379 170.53 363.48C170.608 363.591 170.65 363.724 170.65 363.86C170.65 363.996 170.608 364.129 170.53 364.24C170.24 364.69 169.33 364.82 168.39 364.82ZM166.7 364.35C168.06 364.55 169.92 364.54 170.26 364.06C170.31 364 170.35 363.89 170.26 363.68C170.184 363.556 170.062 363.466 169.92 363.43C169.14 363.23 167.59 363.89 166.7 364.35Z" fill="#407BFF"/>
<path d="M166.17 364.62C166.137 364.629 166.103 364.629 166.07 364.62C166.042 364.602 166.021 364.576 166.008 364.546C165.996 364.516 165.993 364.482 166 364.45C166.068 363.409 166.467 362.417 167.14 361.62C167.276 361.503 167.436 361.416 167.608 361.366C167.781 361.316 167.962 361.304 168.14 361.33C168.62 361.33 168.76 361.62 168.79 361.81C168.92 362.64 167.17 364.23 166.28 364.63L166.17 364.62ZM167.96 361.62C167.74 361.618 167.527 361.697 167.36 361.84C166.795 362.472 166.444 363.266 166.36 364.11C167.26 363.56 168.46 362.32 168.36 361.82C168.36 361.82 168.36 361.65 168.02 361.62H167.96Z" fill="#407BFF"/>
<path d="M158.09 364.44H165.44L166.17 347.43H158.82L158.09 364.44Z" fill="#E4897B"/>
<path d="M92.64 335.24L98.78 339.26L112.34 327.81L106.19 323.78L92.64 335.24Z" fill="#E4897B"/>
<path d="M99.79 338.88L93.41 333.65C93.2973 333.557 93.1559 333.507 93.01 333.507C92.8641 333.507 92.7227 333.557 92.61 333.65L87.35 337.78C87.2229 337.881 87.1203 338.01 87.0498 338.156C86.9792 338.302 86.9426 338.463 86.9426 338.625C86.9426 338.787 86.9792 338.948 87.0498 339.094C87.1203 339.24 87.2229 339.369 87.35 339.47C89.61 341.26 90.8 342.02 93.61 344.32C95.34 345.73 99.61 350.05 102.02 352C104.43 353.95 106.64 351.85 105.84 350.84C102.25 346.29 100.84 342.4 100.43 339.99C100.359 339.554 100.132 339.16 99.79 338.88V338.88Z" fill="#263238"/>
<path d="M165.39 363.59H157.39C157.244 363.591 157.103 363.64 156.988 363.731C156.874 363.822 156.794 363.948 156.76 364.09L155.31 370.62C155.274 370.778 155.274 370.943 155.31 371.101C155.347 371.259 155.419 371.407 155.521 371.533C155.623 371.659 155.753 371.761 155.9 371.83C156.047 371.898 156.208 371.933 156.37 371.93C159.26 371.88 163.44 371.71 167.08 371.71C171.33 371.71 175.01 371.94 179.99 371.94C182.99 371.94 183.85 368.89 182.58 368.62C176.84 367.36 172.14 367.23 167.18 364.16C166.648 363.808 166.028 363.61 165.39 363.59V363.59Z" fill="#263238"/>
<path d="M121.66 137.45C115.29 140.45 111.66 160.55 111.66 160.55L127.23 166.76C129.509 161.195 131.351 155.461 132.74 149.61C134.88 140.35 128.18 134.35 121.66 137.45Z" fill="#263238"/>
<path d="M129.92 148.78C126.07 152.68 124.31 160.32 123.54 165.29L127.27 166.78C129.484 161.373 131.289 155.807 132.67 150.13C132.34 148.01 131.52 147.16 129.92 148.78Z" fill="#203048"/>
<path d="M164.14 137.31C164.14 137.31 171.96 146.15 164.58 200.81H125.29C125.02 194.81 128.81 165.36 122.99 136.94C127.332 136.098 131.725 135.544 136.14 135.28C141.702 134.95 147.278 134.95 152.84 135.28C156.653 135.664 160.431 136.342 164.14 137.31V137.31Z" fill="#263238"/>
<path d="M167.73 158.53L161.11 147.12C159.832 152.444 159.31 157.921 159.56 163.39C159.74 167.31 163.33 181.83 166.56 183.95C167.417 175.505 167.808 167.018 167.73 158.53V158.53Z" fill="#203048"/>
<path d="M168.65 145.12C169.65 149.98 170.65 154.96 171.72 159.84C172.79 164.72 173.9 169.62 175.19 174.35C175.52 175.52 175.83 176.72 176.19 177.84L176.46 178.7L176.59 179.13V179.08C176.52 178.99 176.44 178.98 176.5 179.08C176.911 179.529 177.436 179.857 178.02 180.03C178.965 180.382 179.939 180.653 180.93 180.84C185.658 181.589 190.445 181.901 195.23 181.77L196.18 187.21C194.84 187.64 193.59 187.95 192.27 188.26C190.95 188.57 189.65 188.83 188.32 189.03C185.568 189.488 182.778 189.676 179.99 189.59C178.44 189.548 176.899 189.347 175.39 188.99C173.472 188.57 171.669 187.734 170.11 186.54C169.092 185.718 168.251 184.697 167.64 183.54C167.48 183.24 167.34 182.9 167.21 182.61L167.03 182.14L166.66 181.14C166.15 179.87 165.73 178.62 165.27 177.37C163.58 172.37 162.17 167.32 160.93 162.28C159.69 157.24 158.62 152.21 157.73 147.04L168.65 145.12Z" fill="#E4897B"/>
<path d="M154.33 142.67C152.26 149.38 160.65 169.39 160.65 169.39L177.36 165.19C177.36 165.19 176.72 154.79 172.91 146.54C167.17 134.1 156.81 134.62 154.33 142.67Z" fill="#263238"/>
<path d="M195.09 181.77L203.41 181.56L199.41 190.22C199.41 190.22 196.02 190.67 193.24 186.1L190.31 182.6L193.68 181.93C194.144 181.832 194.616 181.779 195.09 181.77V181.77Z" fill="#E4897B"/>
<path d="M208.66 183.17L203.9 190.35L199.41 190.22L203.41 181.56L208.66 183.17Z" fill="#E4897B"/>
<path d="M166.17 347.43L165.79 356.2H158.44L158.82 347.43H166.17Z" fill="#CE6F64"/>
<path d="M106.19 323.78L112.34 327.81L105.34 333.71L99.2 329.69L106.19 323.78Z" fill="#CE6F64"/>
<path d="M138.26 110.73C138.7 118 138.59 122.29 142.26 126.02C147.78 131.65 156.77 128.32 158.51 121.02C160.08 114.48 159.1 103.68 151.98 100.78C150.409 100.146 148.703 99.9213 147.021 100.127C145.339 100.333 143.738 100.963 142.366 101.958C140.995 102.952 139.898 104.279 139.18 105.814C138.462 107.348 138.145 109.04 138.26 110.73V110.73Z" fill="#E4897B"/>
<path d="M129.7 109.45C131.51 116.08 135.77 123.72 141.28 124.21C148.12 124.81 151.21 117.74 152.11 110.44C156.21 107.63 154.06 104.54 158.17 104.15C163.45 103.65 161.76 93.99 154.81 92.44C154.81 92.44 157.14 96.79 152.25 94.59C147.6 92.3799 142.433 91.4842 137.31 92C137.31 92 143.55 95.12 137.45 96.51C131.35 97.9 129.53 101.66 132.34 103.93C132.34 103.94 128.51 105.09 129.7 109.45Z" fill="#263238"/>
<path d="M147.94 111.94C148.074 113.747 148.802 115.459 150.01 116.81C151.61 118.58 153.28 117.48 153.56 115.33C153.82 113.4 153.29 110.15 151.33 109.17C149.37 108.19 147.81 109.76 147.94 111.94Z" fill="#E4897B"/>
<path d="M150.64 200.81C150.64 200.81 157.8 252.66 152.16 273.44C143.22 306.34 109.04 334.11 109.04 334.11L97.45 326.51C97.45 326.51 126.56 303.06 130.12 275.51C133.32 250.78 125.29 220.87 125.29 200.8L150.64 200.81Z" fill="#407BFF"/>
<path opacity="0.1" d="M150.64 200.81C150.64 200.81 157.8 252.66 152.16 273.44C143.22 306.34 109.04 334.11 109.04 334.11L97.45 326.51C97.45 326.51 126.56 303.06 130.12 275.51C133.32 250.78 125.29 220.87 125.29 200.8L150.64 200.81Z" fill="black"/>
<path d="M153.6 230.45C151.694 228.266 149.595 226.258 147.33 224.45C148.55 241.28 149.55 266.21 148.44 283.92C149.932 280.525 151.176 277.026 152.16 273.45C154.91 263.3 154.62 245.77 153.6 230.45Z" fill="#407BFF"/>
<path opacity="0.3" d="M153.6 230.45C151.694 228.266 149.595 226.258 147.33 224.45C148.55 241.28 149.55 266.21 148.44 283.92C149.932 280.525 151.176 277.026 152.16 273.45C154.91 263.3 154.62 245.77 153.6 230.45Z" fill="black"/>
<path d="M113.71 331.52C113.76 331.52 109.22 334.52 109.22 334.52L96.56 326.22L100.56 322.91L113.71 331.52Z" fill="#407BFF"/>
<path opacity="0.3" d="M113.71 331.52C113.76 331.52 109.22 334.52 109.22 334.52L96.56 326.22L100.56 322.91L113.71 331.52Z" fill="black"/>
<path d="M164.58 200.81C164.58 200.81 175.64 247.71 176.42 270.12C177.3 295.24 168.53 354.5 168.53 354.5H156.08C156.08 354.5 154.55 294.78 154 271.9C153.39 246.95 138.75 200.81 138.75 200.81H164.58Z" fill="#407BFF"/>
<path opacity="0.1" d="M164.58 200.81C164.58 200.81 175.64 247.71 176.42 270.12C177.3 295.24 168.53 354.5 168.53 354.5H156.08C156.08 354.5 154.55 294.78 154 271.9C153.39 246.95 138.75 200.81 138.75 200.81H164.58Z" fill="black"/>
<path d="M170.92 349.55C170.98 349.55 170.22 354.71 170.22 354.71H155.08L154.67 350.1L170.92 349.55Z" fill="#407BFF"/>
<path opacity="0.3" d="M170.92 349.55C170.98 349.55 170.22 354.71 170.22 354.71H155.08L154.67 350.1L170.92 349.55Z" fill="black"/>
<path d="M356 155.74C356.85 156.54 357.52 157.22 358.22 157.98C358.92 158.74 359.58 159.48 360.22 160.25C361.52 161.78 362.74 163.39 363.92 165.01C366.277 168.26 368.373 171.69 370.19 175.27L370.56 176C370.741 176.353 370.891 176.721 371.01 177.1C371.252 177.832 371.399 178.591 371.45 179.36C371.515 180.716 371.329 182.072 370.9 183.36C370.169 185.499 369.084 187.501 367.69 189.28C365.177 192.507 362.214 195.356 358.89 197.74L356.4 194.88C357.57 193.51 358.79 192.04 359.88 190.57C360.989 189.146 361.992 187.642 362.88 186.07C363.71 184.699 364.324 183.208 364.7 181.65C364.829 181.093 364.853 180.516 364.77 179.95C364.734 179.76 364.674 179.575 364.59 179.4C364.553 179.323 364.509 179.25 364.46 179.18L364.14 178.64C362.211 175.495 360.118 172.454 357.87 169.53C356.76 168.06 355.57 166.65 354.37 165.26C353.78 164.56 353.17 163.88 352.56 163.2C351.95 162.52 351.29 161.84 350.76 161.31L356 155.74Z" fill="#E4897B"/>
<path d="M357.36 194.04L349.89 192.82L353.8 199.36C353.8 199.36 358.61 199.19 359.98 196.36L357.36 194.04Z" fill="#E4897B"/>
<path d="M344.37 195.84L347.93 201.15L353.8 199.36L349.89 192.82L344.37 195.84Z" fill="#E4897B"/>
<path d="M357 364.73C356.492 364.774 355.985 364.635 355.57 364.34C355.445 364.222 355.352 364.073 355.301 363.908C355.251 363.743 355.243 363.568 355.28 363.4C355.287 363.293 355.324 363.189 355.385 363.101C355.447 363.013 355.532 362.944 355.63 362.9C356.5 362.51 358.78 363.97 359.04 364.14C359.07 364.158 359.093 364.186 359.105 364.218C359.118 364.251 359.12 364.286 359.11 364.32C359.106 364.354 359.092 364.386 359.068 364.412C359.045 364.437 359.014 364.454 358.98 364.46C358.332 364.624 357.668 364.715 357 364.73V364.73ZM356 363.18C355.927 363.169 355.853 363.169 355.78 363.18C355.736 363.201 355.699 363.233 355.672 363.274C355.646 363.314 355.631 363.361 355.63 363.41C355.604 363.522 355.606 363.638 355.638 363.749C355.669 363.859 355.729 363.959 355.81 364.04C356.19 364.38 357.17 364.43 358.48 364.17C357.73 363.674 356.886 363.337 356 363.18V363.18Z" fill="#407BFF"/>
<path d="M359 364.45H358.91C358.2 364.04 356.83 362.45 357 361.58C357.032 361.443 357.108 361.32 357.217 361.23C357.325 361.14 357.459 361.087 357.6 361.08C357.735 361.061 357.873 361.072 358.003 361.114C358.133 361.155 358.251 361.226 358.35 361.32C359.17 362.04 359.18 364.2 359.18 364.32C359.178 364.35 359.169 364.38 359.153 364.406C359.138 364.432 359.116 364.454 359.09 364.47L359 364.45ZM357.72 361.45H357.64C357.42 361.45 357.37 361.57 357.35 361.66C357.25 362.17 358.1 363.39 358.81 363.96C358.828 363.121 358.587 362.297 358.12 361.6C358.06 361.544 357.989 361.502 357.911 361.476C357.834 361.45 357.751 361.441 357.67 361.45H357.72Z" fill="#407BFF"/>
<path d="M322.92 364.73C322.282 364.791 321.642 364.628 321.11 364.27C320.99 364.164 320.898 364.03 320.84 363.88C320.783 363.731 320.762 363.569 320.78 363.41C320.786 363.313 320.817 363.219 320.87 363.137C320.922 363.054 320.995 362.987 321.08 362.94C322.01 362.42 324.99 363.94 325.33 364.13C325.361 364.15 325.386 364.179 325.402 364.212C325.418 364.246 325.424 364.283 325.42 364.32C325.414 364.355 325.398 364.387 325.373 364.413C325.347 364.438 325.315 364.454 325.28 364.46C324.504 364.625 323.713 364.715 322.92 364.73V364.73ZM321.59 363.18C321.476 363.172 321.361 363.197 321.26 363.25C321.224 363.267 321.194 363.294 321.172 363.328C321.151 363.361 321.14 363.4 321.14 363.44C321.125 363.544 321.135 363.65 321.17 363.75C321.205 363.849 321.263 363.938 321.34 364.01C321.8 364.42 323.03 364.49 324.69 364.21C323.722 363.694 322.674 363.346 321.59 363.18V363.18Z" fill="#407BFF"/>
<path d="M325.25 364.45H325.17C324.28 364.05 322.51 362.45 322.65 361.58C322.65 361.38 322.83 361.13 323.32 361.08C323.499 361.061 323.68 361.078 323.852 361.132C324.024 361.185 324.183 361.273 324.32 361.39C325.26 362.17 325.44 364.19 325.44 364.28C325.444 364.311 325.439 364.342 325.427 364.37C325.415 364.398 325.395 364.422 325.37 364.44C325.332 364.456 325.29 364.46 325.25 364.45V364.45ZM323.46 361.45H323.35C323.03 361.45 323.01 361.61 323 361.65C322.92 362.16 324.12 363.43 325 363.98C324.913 363.125 324.564 362.318 324 361.67C323.848 361.541 323.659 361.464 323.46 361.45V361.45Z" fill="#407BFF"/>
<path d="M337.07 132.75C336.78 137.27 336 146.45 339.47 148.99C339.47 148.99 338.84 153.62 330.65 154.7C321.65 155.87 325.76 150.79 325.76 150.79C330.53 148.97 329.92 145.34 328.62 142.02L337.07 132.75Z" fill="#E4897B"/>
<path d="M318.44 124.76C318.391 124.76 318.342 124.749 318.297 124.729C318.252 124.708 318.212 124.678 318.18 124.64C317.894 124.301 317.532 124.034 317.124 123.86C316.716 123.686 316.273 123.611 315.83 123.64C315.783 123.649 315.735 123.647 315.689 123.637C315.643 123.626 315.599 123.606 315.561 123.578C315.522 123.55 315.49 123.514 315.466 123.474C315.442 123.433 315.426 123.387 315.42 123.34C315.409 123.246 315.435 123.151 315.493 123.076C315.551 123.001 315.636 122.952 315.73 122.94C316.295 122.892 316.862 122.982 317.385 123.201C317.907 123.421 318.369 123.763 318.73 124.2C318.773 124.252 318.801 124.315 318.81 124.383C318.819 124.45 318.809 124.518 318.78 124.58C318.752 124.642 318.707 124.694 318.651 124.731C318.594 124.768 318.528 124.789 318.46 124.79L318.44 124.76Z" fill="#263238"/>
<path d="M316.88 129.19C316.525 130.624 315.977 132.004 315.25 133.29C315.584 133.47 315.953 133.574 316.332 133.594C316.71 133.615 317.089 133.552 317.44 133.41L316.88 129.19Z" fill="#DE5753"/>
<path d="M317.28 128.09C317.36 128.69 317.11 129.21 316.72 129.27C316.33 129.33 315.94 128.87 315.87 128.27C315.8 127.67 316.04 127.15 316.43 127.1C316.82 127.05 317.21 127.45 317.28 128.09Z" fill="#263238"/>
<path d="M316.61 127.11L315.12 126.88C315.12 126.88 316 127.91 316.61 127.11Z" fill="#263238"/>
<path d="M333.49 364.29H325.99L325.49 346.94H332.99L333.49 364.29Z" fill="#E4897B"/>
<path d="M367.54 364.29H360.04L357.63 346.94H365.13L367.54 364.29Z" fill="#E4897B"/>
<path d="M359.58 363.45H368C368.144 363.449 368.283 363.5 368.391 363.594C368.5 363.688 368.571 363.818 368.59 363.96L369.59 370.63C369.608 370.798 369.591 370.968 369.539 371.129C369.487 371.29 369.401 371.438 369.288 371.564C369.175 371.689 369.036 371.79 368.881 371.858C368.727 371.926 368.559 371.961 368.39 371.96C365.46 371.91 364.04 371.74 360.34 371.74C358.06 371.74 354.73 371.97 351.59 371.97C348.45 371.97 348.28 368.86 349.59 368.58C355.46 367.32 356.39 365.58 358.36 363.91C358.704 363.625 359.133 363.463 359.58 363.45Z" fill="#263238"/>
<path d="M325.74 363.45H334.15C334.295 363.448 334.435 363.499 334.545 363.593C334.656 363.687 334.728 363.817 334.75 363.96L335.75 370.63C335.768 370.798 335.751 370.968 335.699 371.129C335.647 371.29 335.561 371.438 335.448 371.564C335.335 371.689 335.196 371.79 335.041 371.858C334.887 371.926 334.719 371.961 334.55 371.96C331.62 371.91 330.2 371.74 326.5 371.74C324.22 371.74 319.5 371.97 316.36 371.97C313.22 371.97 313.05 368.86 314.36 368.58C320.23 367.32 322.54 365.58 324.52 363.91C324.864 363.625 325.293 363.463 325.74 363.45Z" fill="#263238"/>
<path d="M325.49 346.94L325.75 355.89H333.25L332.99 346.94H325.49Z" fill="#CE6F64"/>
<path d="M365.13 346.94H357.63L358.88 355.89H366.37L365.13 346.94Z" fill="#CE6F64"/>
<path d="M337.17 123.39C337.68 130.81 338.05 133.94 334.83 138.21C329.98 144.62 320.76 143.63 318.04 136.51C315.59 130.1 315.17 119.05 321.99 115.17C323.49 114.31 325.185 113.848 326.915 113.827C328.644 113.806 330.349 114.227 331.87 115.051C333.391 115.874 334.676 117.073 335.603 118.532C336.531 119.991 337.07 121.664 337.17 123.39V123.39Z" fill="#E4897B"/>
<path d="M341.49 130.28C345.65 132.6 348.74 126.88 348.74 126.88C348.74 126.88 341.28 127.69 341.95 123.25C342.83 117.36 338.61 110.2 328.03 111.12C327.44 111.17 326.88 111.24 326.33 111.33C325.222 110.805 323.97 110.669 322.776 110.945C321.581 111.221 320.515 111.892 319.75 112.85C316.75 113.1 312.7 116.68 315.45 121.41C315.643 120.867 315.942 120.367 316.33 119.94C316.56 122.71 318.98 127.11 322 127.4C322.65 131.19 320.13 135.58 321 139.54C322.29 145.25 331.92 146.54 331.92 146.54C331.588 145.827 331.464 145.035 331.563 144.254C331.662 143.474 331.98 142.737 332.48 142.13C339.02 145.13 343.33 142.2 343.33 142.2C338.87 140.54 340.22 137.58 340.22 137.58C341.76 138.264 343.505 138.324 345.088 137.748C346.672 137.171 347.97 136.004 348.71 134.49C347.229 134.56 345.758 134.2 344.477 133.453C343.196 132.706 342.158 131.604 341.49 130.28V130.28Z" fill="#263238"/>
<path d="M324.61 128.54C324.628 129.252 324.504 129.961 324.247 130.625C323.989 131.289 323.603 131.896 323.11 132.41C321.79 133.78 320.17 132.82 319.73 131.07C319.34 129.49 319.56 126.88 321.28 126.16C321.659 126.011 322.068 125.959 322.472 126.009C322.876 126.059 323.26 126.209 323.591 126.446C323.922 126.682 324.189 126.998 324.367 127.364C324.544 127.729 324.628 128.134 324.61 128.54V128.54Z" fill="#E4897B"/>
<path d="M330.84 197.67C330.84 197.67 332.74 247.03 337.26 276.01C340.9 299.43 357.07 354.15 357.07 354.15H367.29C367.29 354.15 358.86 301.3 357.01 278.15C352.33 219.56 364.48 206.98 353.01 194.78L330.84 197.67Z" fill="#263238"/>
<path d="M339.38 213.28C339.38 213.28 334.76 212.48 332.06 221.28C333.06 237.95 334.77 260.07 337.26 276.01C337.81 279.56 338.65 283.84 339.68 288.53C337.73 260.37 339.38 213.28 339.38 213.28Z" fill="#161F33"/>
<path d="M322.87 198.71C322.87 198.71 314.45 253.32 314.94 276.17C315.45 299.94 324.16 354.17 324.16 354.17H334.29C334.29 354.17 332.69 301.35 333.58 278.01C334.58 252.56 344.97 195.84 344.97 195.84L322.87 198.71Z" fill="#263238"/>
<path d="M368.77 354.63H355.18L354.12 350.07L368.67 350.17L368.77 354.63Z" fill="#407BFF"/>
<path opacity="0.2" d="M368.77 354.63H355.18L354.12 350.07L368.67 350.17L368.77 354.63Z" fill="black"/>
<path d="M352.5 149C356.41 149.38 362.35 160.49 362.35 160.49L352.48 168.06C352.48 168.06 344.31 160.89 345.28 156.86C346.29 152.67 348.75 148.65 352.5 149Z" fill="#407BFF"/>
<path opacity="0.1" d="M352.5 149C356.41 149.38 362.35 160.49 362.35 160.49L352.48 168.06C352.48 168.06 344.31 160.89 345.28 156.86C346.29 152.67 348.75 148.65 352.5 149Z" fill="black"/>
<path d="M349.55 153.78C348.553 153.511 347.521 153.397 346.49 153.44C345.965 154.533 345.56 155.68 345.28 156.86C344.28 160.86 352.48 168.06 352.48 168.06L353.21 167.5L349.55 153.78Z" fill="#407BFF"/>
<path opacity="0.3" d="M349.55 153.78C348.553 153.511 347.521 153.397 346.49 153.44C345.965 154.533 345.56 155.68 345.28 156.86C344.28 160.86 352.48 168.06 352.48 168.06L353.21 167.5L349.55 153.78Z" fill="black"/>
<path d="M319.52 164.45C316.67 171.66 313.67 178.99 311.28 186.22C311.12 186.68 310.99 187.12 310.85 187.57L310.51 188.68C310.417 189.007 310.417 189.353 310.51 189.68C311.074 190.93 311.97 192.002 313.1 192.78C316.09 194.925 319.348 196.67 322.79 197.97L321.89 201.65C317.655 201.092 313.56 199.756 309.81 197.71C307.502 196.477 305.623 194.573 304.42 192.25C303.729 190.765 303.489 189.11 303.73 187.49C303.753 187.292 303.786 187.095 303.83 186.9L303.93 186.48L304.1 185.72C304.22 185.21 304.34 184.72 304.47 184.22C305.47 180.22 306.75 176.42 308.1 172.65C309.45 168.88 310.86 165.16 312.45 161.45L319.52 164.45Z" fill="#E4897B"/>
<path d="M313.45 154.33C313.45 154.33 310.07 156.04 322.87 198.71L353.05 194.77C350.93 182.55 349.93 174.98 352.5 149C348.172 148.69 343.828 148.69 339.5 149C334.893 149.268 330.311 149.87 325.79 150.8C320 152.09 313.45 154.33 313.45 154.33Z" fill="#407BFF"/>
<path opacity="0.1" d="M313.45 154.33C313.45 154.33 310.07 156.04 322.87 198.71L353.05 194.77C350.93 182.55 349.93 174.98 352.5 149C348.172 148.69 343.828 148.69 339.5 149C334.893 149.268 330.311 149.87 325.79 150.8C320 152.09 313.45 154.33 313.45 154.33Z" fill="black"/>
<path d="M353.27 192.94L355 195.45C355.13 195.65 354.91 195.89 354.57 195.94L322.92 200.08C322.65 200.08 322.4 200.01 322.36 199.84L321.74 197.17C321.69 196.99 321.91 196.8 322.21 196.76L352.77 192.76C352.862 192.745 352.956 192.754 353.043 192.786C353.131 192.817 353.209 192.87 353.27 192.94Z" fill="#407BFF"/>
<path opacity="0.2" d="M353.27 192.94L355 195.45C355.13 195.65 354.91 195.89 354.57 195.94L322.92 200.08C322.65 200.08 322.4 200.01 322.36 199.84L321.74 197.17C321.69 196.99 321.91 196.8 322.21 196.76L352.77 192.76C352.862 192.745 352.956 192.754 353.043 192.786C353.131 192.817 353.209 192.87 353.27 192.94Z" fill="black"/>
<path d="M349.61 196.89L350.43 196.78C350.59 196.78 350.7 196.66 350.68 196.56L349.84 193.1C349.808 193.041 349.757 192.995 349.695 192.969C349.633 192.944 349.564 192.94 349.5 192.96L348.68 193.06C348.51 193.06 348.4 193.18 348.43 193.29L349.27 196.74C349.29 196.85 349.45 196.91 349.61 196.89Z" fill="#263238"/>
<path d="M329.77 199.45L330.59 199.34C330.75 199.34 330.87 199.22 330.84 199.12L330 195.66C329.967 195.602 329.916 195.555 329.855 195.528C329.794 195.501 329.725 195.495 329.66 195.51L328.84 195.62C328.68 195.62 328.56 195.74 328.59 195.84L329.43 199.3C329.45 199.45 329.61 199.51 329.77 199.45Z" fill="#263238"/>
<path d="M314.86 168.81C315.69 172.67 316.86 177.56 318.57 183.75L318.94 168.06L314.86 168.81Z" fill="#407BFF"/>
<path opacity="0.3" d="M314.86 168.81C315.69 172.67 316.86 177.56 318.57 183.75L318.94 168.06L314.86 168.81Z" fill="black"/>
<path d="M313.45 154.33C309.7 155.84 306.45 168.67 306.45 168.67L319.35 174.95C319.35 174.95 325.58 159.26 322.79 156.2C320 153.14 317.77 152.6 313.45 154.33Z" fill="#407BFF"/>
<path opacity="0.1" d="M313.45 154.33C309.7 155.84 306.45 168.67 306.45 168.67L319.35 174.95C319.35 174.95 325.58 159.26 322.79 156.2C320 153.14 317.77 152.6 313.45 154.33Z" fill="black"/>
<path d="M336.02 354.63H322.43L321.37 350.07L336.5 350.17L336.02 354.63Z" fill="#407BFF"/>
<path opacity="0.2" d="M336.02 354.63H322.43L321.37 350.07L336.5 350.17L336.02 354.63Z" fill="black"/>
<path d="M323 196.73L321.91 196.28C321.642 196.171 321.35 196.135 321.064 196.175C320.777 196.216 320.506 196.331 320.279 196.51C320.052 196.688 319.875 196.924 319.768 197.193C319.661 197.462 319.628 197.754 319.67 198.04L320.46 203.25C320.498 203.511 320.593 203.76 320.739 203.979C320.885 204.199 321.078 204.383 321.304 204.519C321.53 204.655 321.783 204.739 322.045 204.765C322.307 204.791 322.572 204.759 322.82 204.67C323.217 204.526 323.588 204.32 323.92 204.06C324.282 203.76 324.568 203.379 324.755 202.949C324.943 202.518 325.027 202.049 325 201.58L324.89 199.42C324.871 198.836 324.682 198.271 324.346 197.793C324.011 197.315 323.543 196.946 323 196.73Z" fill="#E4897B"/>
</svg>
