<svg width="479" height="387" viewBox="0 0 479 387" fill="none" xmlns="http://www.w3.org/2000/svg">
<g clip-path="url(#clip0)">
<rect width="479" height="387" fill="#EEF1F7"/>
<g filter="url(#filter0_d)">
<path d="M203.692 382.873C194.139 368.362 153.357 307.346 141.423 305.714C129.794 304.124 88.4663 365.819 77.2877 382.873H203.692Z" fill="#2E353A" stroke="#2E353A" stroke-linecap="round" stroke-linejoin="round"/>
<path d="M255.988 26.3541V167.06" stroke="#2E353A" stroke-width="3" stroke-linecap="round" stroke-linejoin="round"/>
<path d="M272.745 30.131V167.06" stroke="#2E353A" stroke-width="3" stroke-linecap="round" stroke-linejoin="round"/>
<path d="M291.118 105.061V237.69" stroke="#2E353A" stroke-width="3" stroke-linecap="round" stroke-linejoin="round"/>
<path d="M310.57 30.131V237.69" stroke="#2E353A" stroke-width="3" stroke-linecap="round" stroke-linejoin="round"/>
<path d="M330.023 30.131V170.836" stroke="#2E353A" stroke-width="3" stroke-linecap="round" stroke-linejoin="round"/>
<path d="M241.401 45.2174H330.568" stroke="#2E353A" stroke-width="3" stroke-linecap="round" stroke-linejoin="round"/>
<path d="M241.401 76.4888H338.097" stroke="#2E353A" stroke-width="3" stroke-linecap="round" stroke-linejoin="round"/>
<path d="M239.786 105.061H347.315" stroke="#2E353A" stroke-width="3" stroke-linecap="round" stroke-linejoin="round"/>
<path d="M238.161 136.876H347.315" stroke="#2E353A" stroke-width="3" stroke-linecap="round" stroke-linejoin="round"/>
<path d="M258.693 171.37H341.369" stroke="#2E353A" stroke-width="3" stroke-linecap="round" stroke-linejoin="round"/>
<path d="M280.306 204.797H334.343" stroke="#2E353A" stroke-width="3" stroke-linecap="round" stroke-linejoin="round"/>
<path d="M138.046 39.7144L157.121 54.6125" stroke="#2E353A" stroke-width="2" stroke-linecap="round" stroke-linejoin="round"/>
<path d="M176.196 24.0001L182.834 33.9287" stroke="#2E353A" stroke-width="2" stroke-linecap="round" stroke-linejoin="round"/>
<path d="M210.204 0L216.013 18.2041" stroke="#2E353A" stroke-width="2" stroke-linecap="round" stroke-linejoin="round"/>
<path d="M319.033 233.934H287.573V159.307H244.893V27.1388C226.906 27.316 209.266 32.1065 193.671 41.0499C178.075 49.9933 165.048 62.7888 155.841 78.2065C146.634 93.6241 141.557 111.145 141.098 129.086C140.639 147.027 144.814 164.784 153.22 180.65C156.639 188.591 164.672 208.04 172.715 233.191C180.15 256.406 184.03 279.747 184.03 283.273C184.03 283.618 184.03 283.974 184.03 284.319C183.993 285.369 184.169 286.415 184.546 287.395C184.923 288.376 185.494 289.27 186.225 290.026C186.956 290.781 187.832 291.382 188.8 291.793C189.769 292.204 190.811 292.416 191.863 292.417H300.136C301.188 292.415 302.229 292.202 303.197 291.79C304.165 291.379 305.04 290.778 305.771 290.023C306.502 289.267 307.073 288.373 307.451 287.394C307.828 286.414 308.005 285.368 307.97 284.319C307.97 283.943 307.97 283.587 307.97 283.273C307.949 279.789 311.755 256.898 319.033 233.934Z" fill="#0073E6" stroke="#2E353A" stroke-width="2" stroke-linecap="round" stroke-linejoin="round"/>
<path d="M209.355 44.0038C212.389 42.6388 215.502 41.4545 218.677 40.4572" stroke="#2E353A" stroke-width="2" stroke-linecap="round" stroke-linejoin="round"/>
<path d="M174.435 70.5148C174.435 70.5148 182.981 56.914 201.762 47.7596" stroke="#2E353A" stroke-width="2" stroke-linecap="round" stroke-linejoin="round"/>
<path d="M176.679 221.086C180.569 233.766 185.718 251.332 187.501 261.146C190.521 277.697 188.549 286.255 195.051 287.73" stroke="#2E353A" stroke-width="2" stroke-linecap="round" stroke-linejoin="round"/>
<path d="M171.918 205.958C171.918 205.958 172.966 209.358 174.655 214.568" stroke="#2E353A" stroke-width="2" stroke-linecap="round" stroke-linejoin="round"/>
<path d="M239.356 291.402V191.384C239.356 191.384 243.551 165.229 229.919 165.229C216.286 165.229 217.335 178.829 233.065 193.476C248.794 208.123 272.913 194.523 276.059 183.014C279.205 171.506 270.816 166.275 265.573 175.691C260.329 185.107 265.573 291.821 265.573 291.821" stroke="#2E353A" stroke-width="2" stroke-linecap="round" stroke-linejoin="round"/>
<path d="M302.873 291.81H189.713V318.007H302.873V291.81Z" fill="white" stroke="#2E353A" stroke-width="2" stroke-linecap="round" stroke-linejoin="round"/>
<path d="M302.873 324.243H189.713V350.44H302.873V324.243Z" fill="white" stroke="#2E353A" stroke-width="2" stroke-linecap="round" stroke-linejoin="round"/>
<path d="M302.873 318.007H189.713V324.243H302.873V318.007Z" fill="#2E353A" stroke="#2E353A" stroke-linecap="round" stroke-linejoin="round"/>
<path d="M302.873 356.675H189.713V382.873H302.873V356.675Z" fill="white" stroke="#2E353A" stroke-width="2" stroke-linecap="round" stroke-linejoin="round"/>
<path d="M291.034 314.503H299.444" stroke="#2E353A" stroke-linecap="round" stroke-linejoin="round"/>
<path d="M194.16 314.503H286.986" stroke="#2E353A" stroke-linecap="round" stroke-linejoin="round"/>
<path d="M269.222 347.448H296.33" stroke="#2E353A" stroke-linecap="round" stroke-linejoin="round"/>
<path d="M210.959 347.448H266.107" stroke="#2E353A" stroke-linecap="round" stroke-linejoin="round"/>
<path d="M201.93 347.448H206.597" stroke="#2E353A" stroke-linecap="round" stroke-linejoin="round"/>
<path d="M302.873 350.44H189.713V356.675H302.873V350.44Z" fill="#2E353A" stroke="#2E353A" stroke-linecap="round" stroke-linejoin="round"/>
<path d="M243.184 362.419H204.447V382.538H243.184V362.419Z" fill="#0073E6" stroke="#2E353A" stroke-linecap="round" stroke-linejoin="round"/>
<path d="M293.593 362.419H254.855V382.538H293.593V362.419Z" fill="#0073E6" stroke="#2E353A" stroke-linecap="round" stroke-linejoin="round"/>
<path d="M328.439 382.873C321.015 376.376 289.314 349.059 280.086 348.348C271.047 347.626 238.958 375.256 230.275 382.873H328.439Z" fill="#2E353A" stroke="#2E353A" stroke-linecap="round" stroke-linejoin="round"/>
<path d="M450.827 382.873H459.929" stroke="#2E353A" stroke-linecap="round" stroke-linejoin="round"/>
<path d="M34.1568 382.873H441.725" stroke="#2E353A" stroke-linecap="round" stroke-linejoin="round"/>
<path d="M20 382.873H27.0784" stroke="#2E353A" stroke-linecap="round" stroke-linejoin="round"/>
<path d="M432.507 323.165H405.295V361.247H416.568H432.507H443.791V342.206L432.507 323.165Z" fill="#2E353A" stroke="#2E353A" stroke-linecap="round" stroke-linejoin="round"/>
<path d="M443.791 361.247H431.322V369.9H443.791V361.247Z" fill="white" stroke="#2E353A" stroke-linecap="round" stroke-linejoin="round"/>
<path d="M385.066 360.818C385.066 360.818 398.699 353.495 393.98 316.877L376.677 307.462L346.791 302.754L320.05 303.8V318.97C320.05 318.97 335.255 332.048 336.828 336.232C337.815 339.097 338.346 342.097 338.401 345.125V359.772L385.066 360.818Z" fill="#0073E6" stroke="#2E353A" stroke-linecap="round" stroke-linejoin="round"/>
<path d="M393.98 316.877L385.066 360.818" stroke="#2E353A" stroke-linecap="round" stroke-linejoin="round"/>
<path d="M376.677 307.462L366.715 360.818" stroke="#2E353A" stroke-linecap="round" stroke-linejoin="round"/>
<path d="M346.791 302.754L339.45 342.51" stroke="#2E353A" stroke-linecap="round" stroke-linejoin="round"/>
<path d="M321.099 316.877C321.099 316.877 338.401 324.201 345.218 328.909C352.034 333.617 350.985 343.556 350.985 343.556" stroke="#2E353A" stroke-linecap="round" stroke-linejoin="round"/>
<path d="M405.536 361.519H324.234V368.32H405.536V361.519Z" fill="white" stroke="#2E353A" stroke-linecap="round" stroke-linejoin="round"/>
<path d="M421.769 344.079H438.747L429.634 328.386H421.769V344.079Z" fill="white" stroke="#2E353A" stroke-linecap="round" stroke-linejoin="round"/>
<path d="M419.147 328.386H411.807V344.079H419.147V328.386Z" fill="white" stroke="#2E353A" stroke-linecap="round" stroke-linejoin="round"/>
<path d="M374.16 361.247H324.664V373.038H374.16V361.247Z" fill="white" stroke="#2E353A" stroke-linecap="round" stroke-linejoin="round"/>
<path d="M421.05 382.682C426.709 381.662 430.468 376.258 429.446 370.611C428.423 364.965 423.007 361.215 417.347 362.235C411.688 363.255 407.929 368.659 408.951 374.305C409.973 379.951 415.39 383.702 421.05 382.682Z" fill="#2E353A" stroke="#2E353A" stroke-linecap="round" stroke-linejoin="round"/>
<path d="M419.179 378.552C422.532 378.552 425.25 375.84 425.25 372.494C425.25 369.149 422.532 366.437 419.179 366.437C415.825 366.437 413.107 369.149 413.107 372.494C413.107 375.84 415.825 378.552 419.179 378.552Z" fill="white" stroke="#2E353A" stroke-linecap="round" stroke-linejoin="round"/>
<path d="M340.794 382.704C346.456 381.703 350.234 376.312 349.232 370.663C348.229 365.013 342.826 361.244 337.163 362.244C331.5 363.244 327.722 368.635 328.725 374.285C329.727 379.935 335.131 383.704 340.794 382.704Z" fill="#2E353A" stroke="#2E353A" stroke-linecap="round" stroke-linejoin="round"/>
<path d="M338.957 378.552C342.31 378.552 345.029 375.84 345.029 372.494C345.029 369.149 342.31 366.437 338.957 366.437C335.604 366.437 332.885 369.149 332.885 372.494C332.885 375.84 335.604 378.552 338.957 378.552Z" fill="white" stroke="#2E353A" stroke-linecap="round" stroke-linejoin="round"/>
<path d="M371.141 380.102C375.377 376.221 375.658 369.649 371.768 365.423C367.879 361.197 361.291 360.917 357.055 364.797C352.819 368.678 352.539 375.25 356.429 379.476C360.318 383.702 366.905 383.982 371.141 380.102Z" fill="#2E353A" stroke="#2E353A" stroke-linecap="round" stroke-linejoin="round"/>
<path d="M364.093 378.552C367.447 378.552 370.165 375.84 370.165 372.494C370.165 369.149 367.447 366.437 364.093 366.437C360.74 366.437 358.022 369.149 358.022 372.494C358.022 375.84 360.74 378.552 364.093 378.552Z" fill="white" stroke="#2E353A" stroke-linecap="round" stroke-linejoin="round"/>
<path d="M360.685 343.033H334.469C332.587 343.033 331.061 344.555 331.061 346.433V357.418C331.061 359.296 332.587 360.818 334.469 360.818H360.685C362.567 360.818 364.093 359.296 364.093 357.418V346.433C364.093 344.555 362.567 343.033 360.685 343.033Z" fill="#2E353A" stroke="#2E353A" stroke-linecap="round" stroke-linejoin="round"/>
<path d="M317.953 360.818V309.083H328.439V360.818" stroke="#2E353A" stroke-linecap="round" stroke-linejoin="round"/>
<path d="M318.026 315.936H328.324" stroke="#2E353A" stroke-linecap="round" stroke-linejoin="round"/>
<path d="M318.026 324.013H328.324" stroke="#2E353A" stroke-linecap="round" stroke-linejoin="round"/>
<path d="M318.026 332.089H328.324" stroke="#2E353A" stroke-linecap="round" stroke-linejoin="round"/>
<path d="M318.026 340.177H328.324" stroke="#2E353A" stroke-linecap="round" stroke-linejoin="round"/>
<path d="M318.026 348.253H328.324" stroke="#2E353A" stroke-linecap="round" stroke-linejoin="round"/>
<path d="M318.026 356.33H328.324" stroke="#2E353A" stroke-linecap="round" stroke-linejoin="round"/>
<path d="M108.212 383.887H89.3367V55.3761L108.212 77.2734V383.887Z" stroke="#2E353A" stroke-linecap="round" stroke-linejoin="round"/>
<path d="M89.5255 314.837H108.034L89.5255 296.978H108.034L89.5255 314.837Z" stroke="#2E353A" stroke-linecap="round" stroke-linejoin="round"/>
<path d="M89.5255 296.529H108.034L89.5255 278.67H108.034L89.5255 296.529Z" stroke="#2E353A" stroke-linecap="round" stroke-linejoin="round"/>
<path d="M89.5255 278.22H108.034L89.5255 260.361H108.034L89.5255 278.22Z" stroke="#2E353A" stroke-linecap="round" stroke-linejoin="round"/>
<path d="M89.5255 259.911H108.034L89.5255 242.052H108.034L89.5255 259.911Z" stroke="#2E353A" stroke-linecap="round" stroke-linejoin="round"/>
<path d="M89.5255 241.602H108.034L89.5255 223.743H108.034L89.5255 241.602Z" stroke="#2E353A" stroke-linecap="round" stroke-linejoin="round"/>
<path d="M89.5255 223.293H108.034L89.5255 205.435H108.034L89.5255 223.293Z" stroke="#2E353A" stroke-linecap="round" stroke-linejoin="round"/>
<path d="M89.5255 204.985H108.034L89.5255 187.126H108.034L89.5255 204.985Z" stroke="#2E353A" stroke-linecap="round" stroke-linejoin="round"/>
<path d="M89.5255 186.676H108.034L89.5255 168.817H108.034L89.5255 186.676Z" stroke="#2E353A" stroke-linecap="round" stroke-linejoin="round"/>
<path d="M89.5255 168.367H108.034L89.5255 150.508H108.034L89.5255 168.367Z" stroke="#2E353A" stroke-linecap="round" stroke-linejoin="round"/>
<path d="M89.5255 150.058H108.034L89.5255 132.2H108.034L89.5255 150.058Z" stroke="#2E353A" stroke-linecap="round" stroke-linejoin="round"/>
<path d="M89.5255 131.75H108.034L89.5255 113.891H108.034L89.5255 131.75Z" stroke="#2E353A" stroke-linecap="round" stroke-linejoin="round"/>
<path d="M89.5255 113.441H108.034L89.5255 95.5822H108.034L89.5255 113.441Z" stroke="#2E353A" stroke-linecap="round" stroke-linejoin="round"/>
<path d="M89.5255 95.1323H108.034L89.5255 77.2734H108.034L89.5255 95.1323Z" stroke="#2E353A" stroke-linecap="round" stroke-linejoin="round"/>
<path d="M195.848 95.624L186.704 89.8802H121.446L113.477 95.624H195.848Z" stroke="#2E353A" stroke-linecap="round" stroke-linejoin="round"/>
<path d="M197.358 95.1322H37.9633V99.3171H197.358V95.1322Z" fill="#2E353A" stroke="#2E353A" stroke-linecap="round" stroke-linejoin="round"/>
<path d="M186.704 89.8802L89.3367 55.3761L121.446 89.8802" stroke="#2E353A" stroke-linecap="round" stroke-linejoin="round"/>
<path d="M89.3472 55.3761L37.9633 95.1322" stroke="#2E353A" stroke-linecap="round" stroke-linejoin="round"/>
<path d="M121.855 104.025H82.5309V129.134H121.855V104.025Z" fill="#2E353A" stroke="#2E353A" stroke-linecap="round" stroke-linejoin="round"/>
<path d="M113.655 109.256H90.7209V116.58H113.655V109.256Z" fill="white" stroke="#2E353A" stroke-linecap="round" stroke-linejoin="round"/>
<path d="M197.358 99.3171V144.43" stroke="#2E353A" stroke-linecap="round" stroke-linejoin="round"/>
<path d="M203.335 159.841H191.685V173.012H203.335V159.841Z" fill="#2E353A" stroke="#2E353A" stroke-linecap="round" stroke-linejoin="round"/>
<path d="M191.685 159.841L197.515 143.572L203.346 159.841" stroke="#2E353A" stroke-linecap="round" stroke-linejoin="round"/>
<path d="M165.93 318.792L191.098 358.485L197.389 353.892L178.87 316.94C178.038 315.279 176.758 313.882 175.174 312.906C173.591 311.931 171.766 311.415 169.904 311.416V311.416C169.05 311.432 168.215 311.674 167.486 312.118C166.756 312.563 166.158 313.193 165.754 313.944C165.349 314.695 165.152 315.54 165.183 316.392C165.214 317.244 165.472 318.072 165.93 318.792V318.792Z" fill="#0073E6" stroke="#2E353A" stroke-linecap="round" stroke-linejoin="round"/>
<path d="M195.177 348.724L169.286 367.096C169.286 367.096 171.593 376.846 186.546 376.271C201.5 375.696 200.934 360.201 200.934 360.201L195.177 348.724Z" fill="#2E353A" stroke="white" stroke-linecap="round" stroke-linejoin="round"/>
<path d="M123.26 336.672L170.156 315.591C171.703 314.896 173.441 314.751 175.082 315.179C176.722 315.608 178.167 316.584 179.174 317.945V317.945C179.763 318.739 180.186 319.644 180.419 320.604C180.651 321.565 180.689 322.563 180.528 323.538C180.368 324.513 180.013 325.446 179.485 326.283C178.958 327.119 178.267 327.841 177.455 328.407L126.144 364.24L123.26 336.672Z" fill="#0073E6" stroke="#2E353A" stroke-linecap="round" stroke-linejoin="round"/>
<path d="M116.36 362.503H68.0281V369.962H116.36V362.503Z" fill="white" stroke="#2E353A" stroke-linecap="round" stroke-linejoin="round"/>
<path d="M92.7658 341.265H50.7674V358.485H92.7658V341.265Z" fill="#2E353A" stroke="#2E353A" stroke-linecap="round" stroke-linejoin="round"/>
<path d="M87.3023 321.742H122.956C123.791 321.742 124.591 322.073 125.181 322.662C125.771 323.25 126.102 324.049 126.102 324.881V358.464H84.1459V324.881C84.1459 324.468 84.2276 324.059 84.3863 323.677C84.5451 323.296 84.7778 322.949 85.071 322.658C85.3642 322.366 85.7123 322.135 86.0952 321.978C86.4781 321.821 86.8883 321.741 87.3023 321.742V321.742Z" fill="#0073E6" stroke="#2E353A" stroke-linecap="round" stroke-linejoin="round"/>
<path d="M50.3374 382.873H119.097C121.269 382.873 123.353 382.012 124.888 380.479C126.424 378.947 127.287 376.869 127.287 374.702C127.287 372.534 126.425 370.454 124.889 368.92C123.354 367.386 121.27 366.523 119.097 366.52H50.3374C48.1643 366.523 46.0812 367.386 44.5456 368.92C43.01 370.454 42.1475 372.534 42.1475 374.702V374.702C42.1475 376.869 43.0103 378.947 44.5462 380.479C46.0822 382.012 48.1653 382.873 50.3374 382.873Z" fill="#2E353A" stroke="#2E353A" stroke-linecap="round" stroke-linejoin="round"/>
<path d="M60.6981 382.873H129.447C131.621 382.873 133.705 382.012 135.242 380.48C136.78 378.948 137.645 376.87 137.648 374.702C137.648 372.532 136.784 370.451 135.246 368.917C133.708 367.382 131.622 366.52 129.447 366.52H60.6981C58.5232 366.52 56.4373 367.382 54.8995 368.917C53.3616 370.451 52.4976 372.532 52.4976 374.702C52.5004 376.87 53.3656 378.948 54.9032 380.48C56.4408 382.012 58.525 382.873 60.6981 382.873Z" fill="white" stroke="#2E353A" stroke-linecap="round" stroke-linejoin="round"/>
<path d="M126.134 358.485H50.7674V364.229H126.134V358.485Z" fill="white" stroke="#2E353A" stroke-linecap="round" stroke-linejoin="round"/>
<path d="M66.3084 374.702C66.3084 375.724 66.0045 376.723 65.4353 377.573C64.8661 378.423 64.057 379.085 63.1104 379.477C62.1639 379.868 61.1223 379.97 60.1174 379.771C59.1125 379.571 58.1895 379.079 57.465 378.356C56.7405 377.633 56.2471 376.713 56.0472 375.71C55.8474 374.707 55.9499 373.668 56.342 372.724C56.7341 371.78 57.3981 370.972 58.25 370.404C59.1019 369.837 60.1034 369.533 61.128 369.533C62.5019 369.533 63.8196 370.078 64.7911 371.047C65.7626 372.016 66.3084 373.331 66.3084 374.702V374.702Z" fill="#2E353A" stroke="#2E353A" stroke-linecap="round" stroke-linejoin="round"/>
<path d="M74.9387 379.87C77.7997 379.87 80.119 377.556 80.119 374.702C80.119 371.847 77.7997 369.533 74.9387 369.533C72.0777 369.533 69.7584 371.847 69.7584 374.702C69.7584 377.556 72.0777 379.87 74.9387 379.87Z" fill="#2E353A" stroke="#2E353A" stroke-linecap="round" stroke-linejoin="round"/>
<path d="M88.7389 379.87C91.5999 379.87 93.9193 377.556 93.9193 374.702C93.9193 371.847 91.5999 369.533 88.7389 369.533C85.8779 369.533 83.5586 371.847 83.5586 374.702C83.5586 377.556 85.8779 379.87 88.7389 379.87Z" fill="#2E353A" stroke="#2E353A" stroke-linecap="round" stroke-linejoin="round"/>
<path d="M107.73 374.702C107.73 375.724 107.426 376.723 106.857 377.573C106.288 378.423 105.479 379.085 104.532 379.477C103.585 379.868 102.544 379.97 101.539 379.771C100.534 379.571 99.6111 379.079 98.8866 378.356C98.1621 377.633 97.6687 376.713 97.4689 375.71C97.269 374.707 97.3716 373.668 97.7637 372.724C98.1557 371.78 98.8197 370.972 99.6716 370.404C100.524 369.837 101.525 369.533 102.55 369.533C103.924 369.533 105.241 370.078 106.213 371.047C107.184 372.016 107.73 373.331 107.73 374.702V374.702Z" fill="#2E353A" stroke="#2E353A" stroke-linecap="round" stroke-linejoin="round"/>
<path d="M121.541 374.702C121.541 375.724 121.237 376.723 120.668 377.573C120.098 378.423 119.289 379.085 118.343 379.477C117.396 379.868 116.355 379.97 115.35 379.771C114.345 379.571 113.422 379.079 112.697 378.356C111.973 377.633 111.479 376.713 111.28 375.71C111.08 374.707 111.182 373.668 111.574 372.724C111.966 371.78 112.63 370.972 113.482 370.404C114.334 369.837 115.336 369.533 116.36 369.533C117.734 369.533 119.052 370.078 120.023 371.047C120.995 372.016 121.541 373.331 121.541 374.702V374.702Z" fill="#2E353A" stroke="#2E353A" stroke-linecap="round" stroke-linejoin="round"/>
<path d="M135.341 374.702C135.341 375.724 135.037 376.724 134.467 377.574C133.897 378.424 133.088 379.087 132.141 379.478C131.193 379.868 130.151 379.97 129.146 379.77C128.141 379.57 127.218 379.076 126.494 378.353C125.77 377.629 125.277 376.707 125.079 375.704C124.88 374.7 124.984 373.661 125.378 372.717C125.771 371.772 126.437 370.966 127.29 370.399C128.143 369.833 129.146 369.531 130.171 369.533C130.851 369.533 131.524 369.667 132.152 369.927C132.78 370.187 133.35 370.568 133.83 371.048C134.311 371.528 134.691 372.098 134.95 372.725C135.21 373.352 135.342 374.024 135.341 374.702V374.702Z" fill="#2E353A" stroke="#2E353A" stroke-linecap="round" stroke-linejoin="round"/>
<path d="M175.62 321.742C175.62 321.173 175.45 320.616 175.133 320.143C174.815 319.669 174.364 319.301 173.837 319.083C173.309 318.866 172.729 318.809 172.169 318.921C171.61 319.033 171.096 319.308 170.693 319.712C170.29 320.115 170.016 320.629 169.906 321.187C169.796 321.746 169.855 322.325 170.075 322.851C170.294 323.376 170.666 323.825 171.141 324.14C171.617 324.454 172.175 324.621 172.746 324.619C173.124 324.619 173.499 324.545 173.848 324.4C174.198 324.255 174.515 324.043 174.782 323.776C175.049 323.509 175.26 323.192 175.404 322.843C175.548 322.494 175.621 322.12 175.62 321.742Z" fill="#2E353A" stroke="#2E353A" stroke-linecap="round" stroke-linejoin="round"/>
<path d="M119.81 326.335H89.3157V344.707H119.81V326.335Z" fill="white" stroke="#2E353A" stroke-linecap="round" stroke-linejoin="round"/>
<path d="M119.81 326.335H103.126V344.707H119.81V326.335Z" fill="white" stroke="#2E353A" stroke-linecap="round" stroke-linejoin="round"/>
</g>
</g>
<defs>
<filter id="filter0_d" x="15.5" y="-1.00024" width="448.929" height="393.388" filterUnits="userSpaceOnUse" color-interpolation-filters="sRGB">
<feFlood flood-opacity="0" result="BackgroundImageFix"/>
<feColorMatrix in="SourceAlpha" type="matrix" values="0 0 0 0 0 0 0 0 0 0 0 0 0 0 0 0 0 0 127 0"/>
<feOffset dy="4"/>
<feGaussianBlur stdDeviation="2"/>
<feColorMatrix type="matrix" values="0 0 0 0 0 0 0 0 0 0 0 0 0 0 0 0 0 0 0.25 0"/>
<feBlend mode="normal" in2="BackgroundImageFix" result="effect1_dropShadow"/>
<feBlend mode="normal" in="SourceGraphic" in2="effect1_dropShadow" result="shape"/>
</filter>
<clipPath id="clip0">
<rect width="479" height="387" fill="white"/>
</clipPath>
</defs>
</svg>
